<svg xmlns="http://www.w3.org/2000/svg" viewBox="0 0 320.82 171.23"><defs><style>.cls-1{fill:#4d4d4d;}.cls-2{fill:#fff;}</style></defs><title>an-logo</title><g id="Layer_2" data-name="Layer 2"><g id="Layer_1-2" data-name="Layer 1"><path class="cls-1" d="M164.82,7.61h78a78,78,0,0,1,78,78v0a78,78,0,0,1-78,78h-78a0,0,0,0,1,0,0V7.61A0,0,0,0,1,164.82,7.61Z"/><path class="cls-2" d="M200.61,47.18h13.76l40.25,53.4V47.18h14.67v76.87H255.53l-40.25-53.2v53.2H200.61Z"/><path class="cls-1" d="M85.22,40h0a14.85,14.85,0,0,1,13.85,9.28l29.22,72.28a9.25,9.25,0,0,1-8.52,12.72h0a9.25,9.25,0,0,1-8.75-6.06l-6.86-18.71-38,.23-6.86,19.15a8.76,8.76,0,0,1-8.19,5.81h0a8.76,8.76,0,0,1-8.21-11.94L71.49,49.43A14.84,14.84,0,0,1,85.22,40ZM98.85,94.86l-12.32-33a1.91,1.91,0,0,0-3.59,0L71.13,95Zm72.38,76.37H0V0H171.23ZM15.23,156H156V15.23H15.23Z"/></g></g></svg>