<svg xmlns="http://www.w3.org/2000/svg" xmlns:xlink="http://www.w3.org/1999/xlink" viewBox="0 0 500 326.31"><defs><style>.cls-1{isolation:isolate;}.cls-12,.cls-13,.cls-14,.cls-2{fill:#b3b3b3;}.cls-3{fill:#cc6268;}.cls-10,.cls-4,.cls-7{opacity:0.67;}.cls-4{fill:url(#linear-gradient);}.cls-11,.cls-5,.cls-8{mix-blend-mode:multiply;}.cls-5{fill:url(#linear-gradient-2);}.cls-6{fill:#edd94f;}.cls-7{fill:url(#linear-gradient-3);}.cls-8{fill:url(#linear-gradient-4);}.cls-9{fill:#62ccc6;}.cls-10{fill:url(#linear-gradient-5);}.cls-11{fill:url(#linear-gradient-6);}.cls-12{font-size:34px;letter-spacing:0.22em;}.cls-12,.cls-13,.cls-14{font-family:HelveticaNeue-Bold, Helvetica Neue;font-weight:700;}.cls-13{font-size:34px;letter-spacing:0.22em;}.cls-14{font-size:34px;letter-spacing:0.22em;}.cls-15{fill:#494949;}</style><linearGradient id="linear-gradient" x1="276.88" y1="45.52" x2="412.17" y2="145.1" gradientUnits="userSpaceOnUse"><stop offset="0" stop-color="#fff"/><stop offset="1" stop-color="#edd94f" stop-opacity="0"/></linearGradient><linearGradient id="linear-gradient-2" x1="280.52" y1="220.6" x2="78.34" y2="261.84" gradientUnits="userSpaceOnUse"><stop offset="0" stop-color="#cc6268" stop-opacity="0"/><stop offset="1"/></linearGradient><linearGradient id="linear-gradient-3" x1="497.26" y1="230.35" x2="227.14" y2="285.45" xlink:href="#linear-gradient"/><linearGradient id="linear-gradient-4" x1="155.6" y1="172.84" x2="193.32" y2="35.04" gradientUnits="userSpaceOnUse"><stop offset="0" stop-color="#edd94f" stop-opacity="0"/><stop offset="1"/></linearGradient><linearGradient id="linear-gradient-5" x1="0" y1="163.71" x2="200.26" y2="163.71" xlink:href="#linear-gradient"/><linearGradient id="linear-gradient-6" x1="277.17" y1="97.33" x2="432.58" y2="192.88" gradientUnits="userSpaceOnUse"><stop offset="0" stop-color="#62ccc6" stop-opacity="0"/><stop offset="1"/></linearGradient></defs><title>fvd-prism</title><g class="cls-1"><g id="Layer_2" data-name="Layer 2"><g id="Layer_1-2" data-name="Layer 1"><path class="cls-2" d="M272,163.29s-11.48,11.56-25.65,11.56-25.65-11.56-25.65-11.56,11.49-11.57,25.65-11.57S272,163.29,272,163.29Z"/><polyline class="cls-3" points="357.33 214.25 429.64 214.24 231.43 0.67 273.18 0 500 244.11 78.61 246.26 106.02 214.28 357.33 214.25"/><polygon class="cls-4" points="390.17 171.7 231.43 0.67 273.18 0 421.17 159.27 390.17 171.7"/><polyline class="cls-5" points="367.4 244.79 78.61 246.26 106.02 214.28 357.33 214.25 367.4 244.79"/><polygon class="cls-6" points="500 243.76 469.31 275.27 12 275.27 237.38 41.07 258.76 64.46 80.98 245.89 500 243.76"/><polygon class="cls-7" points="232.61 245.12 500 243.76 469.31 275.27 225.06 275.27 232.61 245.12"/><polygon class="cls-8" points="70.78 214.19 237.38 41.07 258.76 64.46 106.56 219.8 70.78 214.19"/><polygon class="cls-9" points="12.07 274.94 0 241.74 231.29 0.79 429.76 214.08 387.08 214.08 231.6 47.11 12.07 274.94"/><polygon class="cls-10" points="200.26 79.63 12.07 274.94 0 241.74 181.67 52.48 200.26 79.63"/><polygon class="cls-11" points="272.94 45.55 429.76 214.08 387.08 214.08 250.99 67.94 272.94 45.55"/><text class="cls-12" transform="translate(381.37 106.68) rotate(47.15)">V</text><text class="cls-13" transform="translate(97.58 127.45) rotate(-49.09)">F</text><text class="cls-14" transform="translate(235.81 309.96) rotate(-1.05)">D</text><circle class="cls-15" cx="246.39" cy="163.79" r="7.04"/></g></g></g></svg>
