<svg id="Layer_1" data-name="Layer 1" xmlns="http://www.w3.org/2000/svg" viewBox="0 0 850 355.73"><defs><style>.cls-1{fill:#999;}.cls-2,.cls-3,.cls-4,.cls-5,.cls-6,.cls-7,.cls-8{fill:none;stroke-miterlimit:10;}.cls-2,.cls-3,.cls-5,.cls-7,.cls-8{stroke:#ccc;}.cls-2,.cls-3,.cls-4,.cls-5{stroke-width:1.14px;}.cls-3{stroke-dasharray:3.42 6.84;}.cls-4,.cls-6{stroke:#e5e5e5;}.cls-5{stroke-dasharray:3.41 6.81;}.cls-6{stroke-width:1.17px;}.cls-7,.cls-8{stroke-width:1.12px;}.cls-8{stroke-dasharray:3.38 6.76;}.cls-9{fill:#fff;}.cls-10{fill:#212121;}.cls-11{fill:#666;}.cls-12{fill:#cc6268;}.cls-13{fill:#62ccc6;}</style></defs><title>about-timeline</title><rect class="cls-1" x="69.82" y="310.76" width="780.18" height="23.22"/><line class="cls-2" x1="129.2" y1="250.15" x2="130.91" y2="250.15"/><line class="cls-3" x1="137.75" y1="250.15" x2="832.29" y2="250.15"/><line class="cls-2" x1="835.71" y1="250.15" x2="837.42" y2="250.15"/><line class="cls-4" x1="129.2" y1="279.83" x2="837.42" y2="279.83"/><line class="cls-2" x1="129.2" y1="217.5" x2="130.91" y2="217.5"/><line class="cls-3" x1="137.75" y1="217.5" x2="832.29" y2="217.5"/><line class="cls-2" x1="835.71" y1="217.5" x2="837.42" y2="217.5"/><line class="cls-2" x1="129.2" y1="184.84" x2="130.91" y2="184.84"/><line class="cls-3" x1="137.75" y1="184.84" x2="832.29" y2="184.84"/><line class="cls-2" x1="835.71" y1="184.84" x2="837.42" y2="184.84"/><line class="cls-2" x1="129.2" y1="152.19" x2="130.91" y2="152.19"/><line class="cls-5" x1="137.72" y1="152.19" x2="839.46" y2="152.19"/><line class="cls-2" x1="842.87" y1="152.19" x2="844.58" y2="152.19"/><line class="cls-2" x1="129.2" y1="119.53" x2="130.91" y2="119.53"/><line class="cls-3" x1="137.75" y1="119.53" x2="832.29" y2="119.53"/><line class="cls-2" x1="835.71" y1="119.53" x2="837.42" y2="119.53"/><line class="cls-2" x1="129.2" y1="86.88" x2="130.91" y2="86.88"/><line class="cls-3" x1="137.75" y1="86.88" x2="832.29" y2="86.88"/><line class="cls-2" x1="835.71" y1="86.88" x2="837.42" y2="86.88"/><line class="cls-2" x1="129.2" y1="54.23" x2="130.91" y2="54.23"/><line class="cls-3" x1="137.75" y1="54.23" x2="832.29" y2="54.23"/><line class="cls-2" x1="835.71" y1="54.23" x2="837.42" y2="54.23"/><line class="cls-6" x1="4.38" y1="22.34" x2="837.42" y2="22.34"/><line class="cls-7" x1="831.68" y1="29.31" x2="831.68" y2="31.02"/><line class="cls-8" x1="831.68" y1="37.78" x2="831.68" y2="277.71"/><line class="cls-7" x1="831.68" y1="281.09" x2="831.68" y2="282.8"/><line class="cls-7" x1="704.89" y1="29.31" x2="704.89" y2="31.02"/><line class="cls-8" x1="704.89" y1="37.78" x2="704.89" y2="277.71"/><line class="cls-7" x1="704.89" y1="281.09" x2="704.89" y2="282.8"/><line class="cls-7" x1="578.11" y1="29.31" x2="578.11" y2="31.02"/><line class="cls-8" x1="578.11" y1="37.78" x2="578.11" y2="277.71"/><line class="cls-7" x1="578.11" y1="281.09" x2="578.11" y2="282.8"/><line class="cls-7" x1="451.32" y1="29.31" x2="451.32" y2="31.02"/><line class="cls-8" x1="451.32" y1="37.78" x2="451.32" y2="277.71"/><line class="cls-7" x1="451.32" y1="281.09" x2="451.32" y2="282.8"/><line class="cls-7" x1="324.54" y1="29.31" x2="324.54" y2="31.02"/><line class="cls-8" x1="324.54" y1="37.78" x2="324.54" y2="277.71"/><line class="cls-7" x1="324.54" y1="281.09" x2="324.54" y2="282.8"/><line class="cls-7" x1="229.74" y1="29.31" x2="229.74" y2="31.02"/><line class="cls-8" x1="229.74" y1="37.78" x2="229.74" y2="277.71"/><line class="cls-7" x1="229.74" y1="281.09" x2="229.74" y2="282.8"/><line class="cls-7" x1="138.37" y1="29.31" x2="138.37" y2="31.02"/><line class="cls-8" x1="138.37" y1="37.78" x2="138.37" y2="277.71"/><line class="cls-7" x1="138.37" y1="281.09" x2="138.37" y2="282.8"/><path class="cls-9" d="M116.47,326.35c0-3.51,4.55-4.07,4.55-6a1.36,1.36,0,0,0-1.48-1.36,2.21,2.21,0,0,0-1.75,1.15l-1.32-.88a3.6,3.6,0,0,1,3.22-1.94,2.9,2.9,0,0,1,3.16,2.88c0,3.12-4.35,3.65-4.39,5.49H123v1.52h-6.46A6.88,6.88,0,0,1,116.47,326.35Z"/><path class="cls-9" d="M124.51,322.33c0-2.79.86-5,3.52-5s3.54,2.22,3.54,5-.88,5.05-3.54,5.05S124.51,325.13,124.51,322.33Zm5.24,0c0-1.89-.39-3.38-1.72-3.38s-1.71,1.49-1.71,3.38.38,3.43,1.71,3.43S129.75,324.25,129.75,322.33Z"/><path class="cls-9" d="M133.13,322.33c0-2.79.86-5,3.52-5s3.54,2.22,3.54,5-.88,5.05-3.54,5.05S133.13,325.13,133.13,322.33Zm5.23,0c0-1.89-.38-3.38-1.71-3.38s-1.71,1.49-1.71,3.38.38,3.43,1.71,3.43S138.36,324.25,138.36,322.33Z"/><path class="cls-9" d="M141.65,326.35c0-3.51,4.55-4.07,4.55-6a1.36,1.36,0,0,0-1.48-1.36,2.21,2.21,0,0,0-1.75,1.15l-1.32-.88a3.6,3.6,0,0,1,3.22-1.94A2.91,2.91,0,0,1,148,320.2c0,3.12-4.36,3.65-4.4,5.49h4.55v1.52h-6.46A6.88,6.88,0,0,1,141.65,326.35Z"/><path class="cls-10" d="M23.51,322.18l-3.23-5.66h2l1.52,2.86c.32.6.58,1.31.59,1.3h0a13.67,13.67,0,0,1,.59-1.3l1.5-2.86h2l-3.23,5.66v4.06H23.51Z"/><path class="cls-10" d="M31.79,319.09a3,3,0,0,1,3.09,3.32c0,.2,0,.67,0,.67H30a2,2,0,0,0,2.1,1.85,3.44,3.44,0,0,0,2-.77l.67,1.25a4.37,4.37,0,0,1-2.81,1,3.58,3.58,0,0,1-3.75-3.66A3.46,3.46,0,0,1,31.79,319.09Zm1.34,2.8a1.35,1.35,0,0,0-1.38-1.45,1.63,1.63,0,0,0-1.68,1.45Z"/><path class="cls-10" d="M39.87,321.86h.23v-.1c0-.91-.57-1.23-1.34-1.23a3.75,3.75,0,0,0-1.92.67L36.18,320a4.72,4.72,0,0,1,2.74-.87,2.6,2.6,0,0,1,2.91,2.78v4.37h-1.6v-.57c0-.27,0-.49,0-.49h0a2.28,2.28,0,0,1-2.13,1.23,2.2,2.2,0,0,1-2.37-2.18C35.73,322,38.73,321.86,39.87,321.86Zm-1.33,3.19a1.79,1.79,0,0,0,1.58-1.83v-.17h-.3c-.9,0-2.33.13-2.33,1.1A.93.93,0,0,0,38.54,325.05Z"/><path class="cls-10" d="M43.64,319.26h1.67v1.2a4.56,4.56,0,0,1,0,.5h0a2.4,2.4,0,0,1,2.22-1.8,1.79,1.79,0,0,1,.31,0v1.71a2.61,2.61,0,0,0-.41,0,2,2,0,0,0-1.9,1.47,3.75,3.75,0,0,0-.15,1.14v2.76H43.64Z"/><path class="cls-10" d="M49.23,324.16a2.89,2.89,0,0,0,1.9.77c.49,0,.92-.22.92-.63,0-1-3.4-.91-3.4-3.15,0-1.3,1.17-2.06,2.67-2.06a3.35,3.35,0,0,1,2.35.8L53,321.17a2.64,2.64,0,0,0-1.71-.6c-.45,0-.89.19-.89.63,0,1,3.4.86,3.4,3.11,0,1.17-1,2.1-2.67,2.1a3.93,3.93,0,0,1-2.72-1Z"/><path class="cls-10" d="M55.36,319.26h1.73V321H55.36Zm0,5.24h1.73v1.74H55.36Z"/><path class="cls-10" d="M5.31,1.92h5.82V3.44H7.08V6h3.27V7.51H7.08v2.61h4.27v1.53h-6Z"/><path class="cls-10" d="M15.53,9.25s-.1.22-.19.37l-1.22,2H12.19l2.3-3.54L12.24,4.66h2l1.09,1.9c.11.18.23.44.23.44h0s.12-.26.23-.44l1.08-1.9h2L16.6,8.11l2.3,3.54H17l-1.22-2a2.53,2.53,0,0,1-.19-.37Z"/><path class="cls-10" d="M20.09,4.66h1.59v.5a4,4,0,0,1,0,.48h0a2.5,2.5,0,0,1,2.25-1.15C25.82,4.49,27,6,27,8.15s-1.35,3.66-3.19,3.66a2.42,2.42,0,0,1-2-1h0a5.58,5.58,0,0,1,0,.6v2.94H20.09Zm3.43,5.68c.95,0,1.75-.78,1.75-2.16S24.56,6,23.53,6s-1.75.65-1.75,2.2C21.78,9.27,22.36,10.34,23.52,10.34Z"/><path class="cls-10" d="M31.52,4.49a3,3,0,0,1,3.09,3.32c0,.2,0,.67,0,.67H29.75a2,2,0,0,0,2.1,1.85,3.44,3.44,0,0,0,2-.77l.67,1.25a4.37,4.37,0,0,1-2.81,1A3.58,3.58,0,0,1,28,8.15,3.45,3.45,0,0,1,31.52,4.49Zm1.34,2.8a1.35,1.35,0,0,0-1.38-1.45A1.63,1.63,0,0,0,29.8,7.29Z"/><path class="cls-10" d="M36.05,4.66h1.67v1.2a4.56,4.56,0,0,1,0,.5h0a2.41,2.41,0,0,1,2.22-1.8,1.84,1.84,0,0,1,.32,0V6.3a2.77,2.77,0,0,0-.41,0,2,2,0,0,0-1.91,1.47,3.75,3.75,0,0,0-.15,1.14v2.77H36.05Z"/><path class="cls-10" d="M41.43,1.92h1.73V3.46H41.43Zm0,2.74h1.74v7H41.43Z"/><path class="cls-10" d="M48.15,4.49a3,3,0,0,1,3.09,3.32c0,.2,0,.67,0,.67H46.38a2,2,0,0,0,2.1,1.85,3.44,3.44,0,0,0,2-.77l.67,1.25a4.37,4.37,0,0,1-2.81,1A3.58,3.58,0,0,1,44.6,8.15,3.46,3.46,0,0,1,48.15,4.49Zm1.34,2.8a1.35,1.35,0,0,0-1.38-1.45,1.62,1.62,0,0,0-1.67,1.45Z"/><path class="cls-10" d="M52.68,4.66h1.67v.81c0,.26,0,.47,0,.47h0a2.73,2.73,0,0,1,2.48-1.45c1.55,0,2.43.81,2.43,2.66v4.5H57.53V7.51c0-.85-.22-1.43-1.11-1.43a1.92,1.92,0,0,0-1.87,1.43,2.79,2.79,0,0,0-.13.93v3.21H52.68Z"/><path class="cls-10" d="M64.37,4.49a3.54,3.54,0,0,1,2.68,1l-.76,1.2A2.75,2.75,0,0,0,64.46,6a2.08,2.08,0,0,0-2.12,2.17,2.13,2.13,0,0,0,2.18,2.19,3.19,3.19,0,0,0,2-.89l.68,1.23a4,4,0,0,1-2.88,1.14,3.59,3.59,0,0,1-3.8-3.66A3.62,3.62,0,0,1,64.37,4.49Z"/><path class="cls-10" d="M71.6,4.49a3,3,0,0,1,3.1,3.32c0,.2,0,.67,0,.67H69.83a2,2,0,0,0,2.1,1.85,3.49,3.49,0,0,0,2-.77l.67,1.25a4.37,4.37,0,0,1-2.81,1,3.58,3.58,0,0,1-3.76-3.66A3.46,3.46,0,0,1,71.6,4.49Zm1.34,2.8a1.34,1.34,0,0,0-1.38-1.45,1.62,1.62,0,0,0-1.67,1.45Z"/><path class="cls-10" d="M76.34,9.56a2.93,2.93,0,0,0,1.91.77c.49,0,.91-.22.91-.63,0-1-3.39-.91-3.39-3.15,0-1.3,1.16-2.06,2.67-2.06a3.34,3.34,0,0,1,2.34.8l-.64,1.29A2.66,2.66,0,0,0,78.42,6c-.45,0-.89.19-.89.63,0,1,3.4.87,3.4,3.11,0,1.17-1,2.1-2.67,2.1a3.89,3.89,0,0,1-2.71-1Z"/><path class="cls-11" d="M72.48,349l1-1.26v0l-1.55-.42.3-1,1.52.57-.08-1.62h1l-.09,1.62,1.53-.57.31,1-1.56.42v0l1,1.26-.81.59-.88-1.35h0l-.89,1.35Z"/><path class="cls-11" d="M77.81,349l1-1.26v0l-1.55-.42.3-1,1.52.57L79,345.28h1L80,346.9l1.52-.57.31,1-1.56.42v0l1,1.26-.81.59-.88-1.35h0l-.89,1.35Z"/><path class="cls-11" d="M83.14,349l1-1.26v0l-1.56-.42.3-1,1.52.57-.08-1.62h1l-.09,1.62,1.53-.57.3,1-1.56.42v0l1,1.26-.81.59-.87-1.35h0L84,349.58Z"/><path class="cls-11" d="M92.17,345.14a4.14,4.14,0,0,1,2.93,1.06l-.56.85a3.65,3.65,0,0,0-2.32-.88,2.93,2.93,0,0,0-3,3.08,3,3,0,0,0,3,3.18,3.65,3.65,0,0,0,2.49-1.05l.6.81a4.33,4.33,0,0,1-3.13,1.28,4.17,4.17,0,0,1,0-8.33Z"/><path class="cls-11" d="M96.64,345.28h1.1v3c0,.28,0,.48,0,.48h0a2.33,2.33,0,0,1,2.14-1.29c1.35,0,2,.75,2,2.22v3.7h-1.1v-3.45c0-.81-.18-1.45-1.1-1.45a1.91,1.91,0,0,0-1.83,1.43,3,3,0,0,0-.09.76v2.71h-1.1Z"/><path class="cls-11" d="M106,347.42a2.46,2.46,0,0,1,2.5,2.71c0,.15,0,.48,0,.48h-4.21a1.89,1.89,0,0,0,2,1.9,2.76,2.76,0,0,0,1.71-.67l.46.81a3.46,3.46,0,0,1-2.24.82,2.94,2.94,0,0,1-3.06-3A2.83,2.83,0,0,1,106,347.42Zm1.37,2.35a1.37,1.37,0,0,0-1.4-1.47,1.65,1.65,0,0,0-1.68,1.47Z"/><path class="cls-11" d="M112.54,347.42a2.92,2.92,0,0,1,2.17.85l-.53.77a2.35,2.35,0,0,0-1.6-.66,2,2,0,0,0-2,2.06,2,2,0,0,0,2.05,2.07,2.63,2.63,0,0,0,1.78-.77l.44.81a3.17,3.17,0,0,1-2.3.92,3,3,0,1,1,0-6.05Z"/><path class="cls-11" d="M116.1,345.28h1.11v4.4H118l1.57-2.12h1.26l-1.92,2.54v0l2.14,3.21h-1.29L118,350.62h-.83v2.72H116.1Z"/><path class="cls-11" d="M125,345.28h1.11v2.63a3.65,3.65,0,0,1,0,.49h0a2,2,0,0,1,1.85-1c1.55,0,2.53,1.24,2.53,3s-1.11,3-2.63,3a2.06,2.06,0,0,1-1.81-1h0s0,.18,0,.43v.43h-1Zm2.7,7.24c.92,0,1.67-.75,1.67-2.06s-.67-2.07-1.63-2.07-1.67.61-1.67,2.08C126.11,351.5,126.65,352.52,127.74,352.52Z"/><path class="cls-11" d="M134.9,349.73h.25v-.1a1.12,1.12,0,0,0-1.26-1.27,2.93,2.93,0,0,0-1.61.56l-.46-.81a3.6,3.6,0,0,1,2.16-.69,2.05,2.05,0,0,1,2.28,2.26v3.66h-1v-.55a3.26,3.26,0,0,1,0-.46h0a2,2,0,0,1-1.85,1.14,1.8,1.8,0,0,1-2-1.76C131.42,349.81,133.93,349.73,134.9,349.73Zm-1.28,2.85a1.75,1.75,0,0,0,1.55-1.84v-.18h-.29c-.83,0-2.34.06-2.34,1.1A1,1,0,0,0,133.62,352.58Z"/><path class="cls-11" d="M140.6,347.42a2.92,2.92,0,0,1,2.17.85l-.53.77a2.32,2.32,0,0,0-1.59-.66,2,2,0,0,0-2,2.06,2,2,0,0,0,2,2.07,2.63,2.63,0,0,0,1.78-.77l.45.81a3.18,3.18,0,0,1-2.31.92,3,3,0,1,1,0-6.05Z"/><path class="cls-11" d="M144.16,345.28h1.11v4.4h.81l1.57-2.12h1.26L147,350.1v0l2.14,3.21h-1.29l-1.74-2.72h-.83v2.72h-1.11Z"/><path class="cls-11" d="M153,345.28h1.11v6.29c0,.69.27.82.62.82H155v1a3.47,3.47,0,0,1-.36,0c-.63,0-1.56-.17-1.56-1.62Z"/><path class="cls-11" d="M159.14,349.73h.25v-.1a1.13,1.13,0,0,0-1.27-1.27,2.88,2.88,0,0,0-1.6.56l-.46-.81a3.6,3.6,0,0,1,2.16-.69,2.05,2.05,0,0,1,2.28,2.26v3.66h-1v-.55c0-.27,0-.46,0-.46h0a2,2,0,0,1-1.85,1.14,1.8,1.8,0,0,1-2-1.76C155.66,349.81,158.17,349.73,159.14,349.73Zm-1.28,2.85a1.75,1.75,0,0,0,1.54-1.84v-.18h-.28c-.84,0-2.34.06-2.34,1.1A1,1,0,0,0,157.86,352.58Z"/><path class="cls-11" d="M162.36,348.53h-.75v-.89h.79V346h1.07v1.67h1.39v.89h-1.39v2.57a1.15,1.15,0,0,0,1.23,1.3,1.46,1.46,0,0,0,.26,0v1a3.48,3.48,0,0,1-.39,0,2,2,0,0,1-2.21-2.16Z"/><path class="cls-11" d="M168.7,347.42a2.46,2.46,0,0,1,2.5,2.71c0,.15,0,.48,0,.48H167a1.89,1.89,0,0,0,2,1.9,2.76,2.76,0,0,0,1.71-.67l.45.81a3.41,3.41,0,0,1-2.23.82,2.94,2.94,0,0,1-3.06-3A2.83,2.83,0,0,1,168.7,347.42Zm1.37,2.35a1.37,1.37,0,0,0-1.4-1.47,1.66,1.66,0,0,0-1.69,1.47Z"/><path class="cls-11" d="M172.54,347.56h1.08v1a3.32,3.32,0,0,1,0,.44h0a2,2,0,0,1,1.82-1.51,2.33,2.33,0,0,1,.29,0v1.1a1.84,1.84,0,0,0-.32,0,1.75,1.75,0,0,0-1.62,1.35,3.67,3.67,0,0,0-.14,1v2.37h-1.11Z"/><path class="cls-11" d="M176.43,352.16h1.16v1.18h-1.16Z"/><path class="cls-11" d="M182.49,345.28h1.13v8.06h-1.13Z"/><path class="cls-11" d="M185.73,345.14h1.07l-.74,2.23h-.82Z"/><path class="cls-11" d="M188,347.56h1.08v.76c0,.23,0,.43,0,.43h0a2.24,2.24,0,0,1,2-1.33,1.59,1.59,0,0,1,1.74,1.32h0a2.33,2.33,0,0,1,2.06-1.32c1.3,0,1.9.75,1.9,2.22v3.7h-1.11v-3.46c0-.81-.15-1.45-1-1.45a1.79,1.79,0,0,0-1.62,1.47,3.29,3.29,0,0,0-.08.8v2.64h-1.11v-3.46c0-.76-.11-1.45-1-1.45A1.82,1.82,0,0,0,189.2,350a3,3,0,0,0-.07.75v2.64H188Z"/><path class="cls-11" d="M200.72,347.56h1.18l1.19,4.05c.1.3.14.62.15.62h0a5.36,5.36,0,0,1,.14-.62l1.26-4h1l1.24,4c.09.3.16.62.16.62h0a5.36,5.36,0,0,1,.14-.62l1.21-4.05h1.16l-1.86,5.78h-1.22l-1.2-3.71c-.09-.3-.16-.63-.16-.63h0s-.07.33-.16.63l-1.19,3.71h-1.23Z"/><path class="cls-11" d="M213.38,347.42a3,3,0,1,1-3.11,3A3,3,0,0,1,213.38,347.42Zm0,5.09a2.07,2.07,0,1,0-2-2.07A2,2,0,0,0,213.38,352.51Z"/><path class="cls-11" d="M217.81,347.56h1.07v1c0,.24,0,.44,0,.44h0a2,2,0,0,1,1.83-1.51,2.33,2.33,0,0,1,.29,0v1.1a1.84,1.84,0,0,0-.32,0,1.75,1.75,0,0,0-1.62,1.35,3.35,3.35,0,0,0-.14,1v2.37h-1.11Z"/><path class="cls-11" d="M222.09,345.28h1.11v4.4H224l1.57-2.12h1.26l-1.92,2.54v0l2.14,3.21h-1.29L224,350.62h-.83v2.72h-1.11Z"/><path class="cls-11" d="M228.09,345.28h1.11v1.13h-1.11Zm0,2.28h1.1v5.78h-1.1Z"/><path class="cls-11" d="M230.94,347.56H232v.76c0,.23,0,.43,0,.43h0a2.35,2.35,0,0,1,2.17-1.33c1.36,0,2,.75,2,2.22v3.7h-1.11v-3.45c0-.81-.17-1.45-1.1-1.45a1.89,1.89,0,0,0-1.82,1.41,2.74,2.74,0,0,0-.09.78v2.71h-1.11Z"/><path class="cls-11" d="M239.92,354.77c1,0,1.83-.44,1.83-1.62v-.42c0-.18,0-.36,0-.36h0a1.83,1.83,0,0,1-1.71.9c-1.61,0-2.58-1.29-2.58-3s.92-2.89,2.52-2.89a2,2,0,0,1,1.82.86h0a1.62,1.62,0,0,1,0-.18v-.54h1.06v5.54c0,1.9-1.45,2.63-2.91,2.63a4.45,4.45,0,0,1-2-.48l.37-.86A3.78,3.78,0,0,0,239.92,354.77Zm1.85-4.45c0-1.5-.73-1.94-1.63-1.94s-1.57.73-1.57,1.91.64,2,1.67,2C241,352.31,241.77,351.83,241.77,350.32Z"/><path class="cls-11" d="M250.22,347.42a3,3,0,1,1-3.11,3A3,3,0,0,1,250.22,347.42Zm0,5.09a2.07,2.07,0,1,0-2-2.07A2,2,0,0,0,250.22,352.51Z"/><path class="cls-11" d="M254.65,347.56h1.08v.76a3.26,3.26,0,0,1,0,.43h0a2.32,2.32,0,0,1,2.16-1.33c1.36,0,2,.75,2,2.22v3.7h-1.11v-3.45c0-.81-.17-1.45-1.09-1.45a1.89,1.89,0,0,0-1.83,1.41,2.74,2.74,0,0,0-.09.78v2.71h-1.11Z"/><path class="cls-11" d="M264.47,347.56h1.07v1c0,.24,0,.44,0,.44h0a2,2,0,0,1,1.83-1.51,2.07,2.07,0,0,1,.28,0v1.1a1.65,1.65,0,0,0-.31,0,1.77,1.77,0,0,0-1.63,1.35,3.66,3.66,0,0,0-.13,1v2.37h-1.11Z"/><path class="cls-11" d="M271.21,347.42a2.46,2.46,0,0,1,2.5,2.71c0,.15,0,.48,0,.48h-4.21a1.89,1.89,0,0,0,2,1.9,2.76,2.76,0,0,0,1.71-.67l.45.81a3.41,3.41,0,0,1-2.23.82,2.94,2.94,0,0,1-3.06-3A2.83,2.83,0,0,1,271.21,347.42Zm1.37,2.35a1.37,1.37,0,0,0-1.4-1.47,1.66,1.66,0,0,0-1.69,1.47Z"/><path class="cls-11" d="M275.12,351.84a2.49,2.49,0,0,0,1.66.67c.48,0,1-.25,1-.72,0-1.06-3-.84-3-2.72,0-1.05.93-1.65,2.09-1.65a2.61,2.61,0,0,1,1.86.64l-.45.84a2.08,2.08,0,0,0-1.42-.52c-.48,0-1,.21-1,.71,0,1,3,.81,3,2.7,0,1-.83,1.68-2.09,1.68a3.09,3.09,0,0,1-2.19-.84Z"/><path class="cls-11" d="M280.17,347.56h1v.49c0,.23,0,.42,0,.42h0a2.11,2.11,0,0,1,1.94-1.05c1.56,0,2.54,1.24,2.54,3s-1.11,3-2.62,3a2,2,0,0,1-1.76-1h0a4,4,0,0,1,0,.51v2.59h-1.11Zm2.7,5c.92,0,1.67-.75,1.67-2.06s-.67-2.07-1.63-2.07-1.67.61-1.67,2.08C281.24,351.5,281.81,352.52,282.87,352.52Z"/><path class="cls-11" d="M289.71,347.42a3,3,0,1,1-3.11,3A3,3,0,0,1,289.71,347.42Zm0,5.09a2.07,2.07,0,1,0-2-2.07A2,2,0,0,0,289.71,352.51Z"/><path class="cls-11" d="M294.14,347.56h1.08v.76a3.26,3.26,0,0,1,0,.43h0a2.32,2.32,0,0,1,2.16-1.33c1.36,0,2,.75,2,2.22v3.7h-1.11v-3.45c0-.81-.17-1.45-1.09-1.45a1.89,1.89,0,0,0-1.83,1.41,2.74,2.74,0,0,0-.09.78v2.71h-1.11Z"/><path class="cls-11" d="M301.1,351.84a2.48,2.48,0,0,0,1.65.67c.48,0,1-.25,1-.72,0-1.06-3-.84-3-2.72,0-1.05.94-1.65,2.09-1.65a2.58,2.58,0,0,1,1.86.64l-.44.84a2.12,2.12,0,0,0-1.43-.52c-.48,0-.95.21-.95.71,0,1,3,.81,3,2.7,0,1-.82,1.68-2.09,1.68a3.12,3.12,0,0,1-2.19-.84Z"/><path class="cls-11" d="M306.13,345.28h1.12v1.13h-1.12Zm0,2.28h1.11v5.78h-1.11Z"/><path class="cls-11" d="M308.2,347.56h1.17l1.41,3.9c.11.32.18.79.19.79h0s.09-.47.21-.79l1.4-3.9h1.17l-2.14,5.78h-1.28Z"/><path class="cls-11" d="M317.2,347.42a2.46,2.46,0,0,1,2.5,2.71c0,.15,0,.48,0,.48h-4.21a1.88,1.88,0,0,0,2,1.9,2.77,2.77,0,0,0,1.72-.67l.45.81a3.41,3.41,0,0,1-2.23.82,2.94,2.94,0,0,1-3.06-3A2.83,2.83,0,0,1,317.2,347.42Zm1.37,2.35a1.36,1.36,0,0,0-1.39-1.47,1.66,1.66,0,0,0-1.69,1.47Z"/><path class="cls-11" d="M326.67,347.42a2.92,2.92,0,0,1,2.17.85l-.53.77a2.35,2.35,0,0,0-1.6-.66,2,2,0,0,0-2,2.06,2,2,0,0,0,2.05,2.07,2.63,2.63,0,0,0,1.78-.77l.44.81a3.17,3.17,0,0,1-2.3.92,3,3,0,1,1,0-6.05Z"/><path class="cls-11" d="M330.23,345.28h1.11v3a3.58,3.58,0,0,1,0,.48h0a2.33,2.33,0,0,1,2.13-1.29c1.36,0,2,.75,2,2.22v3.7h-1.11v-3.45c0-.81-.17-1.45-1.09-1.45a1.91,1.91,0,0,0-1.83,1.43,2.6,2.6,0,0,0-.09.76v2.71h-1.11Z"/><path class="cls-11" d="M340.13,349.73h.25v-.1a1.13,1.13,0,0,0-1.27-1.27,2.93,2.93,0,0,0-1.61.56l-.45-.81a3.59,3.59,0,0,1,2.15-.69,2.06,2.06,0,0,1,2.29,2.26v3.66h-1v-.55c0-.27,0-.46,0-.46h0a2,2,0,0,1-1.85,1.14,1.8,1.8,0,0,1-2-1.76C336.65,349.81,339.16,349.73,340.13,349.73Zm-1.28,2.85a1.75,1.75,0,0,0,1.54-1.84v-.18h-.28c-.84,0-2.34.06-2.34,1.1A1,1,0,0,0,338.85,352.58Z"/><path class="cls-11" d="M343.14,347.56h1.08v1a3.32,3.32,0,0,1,0,.44h0a2,2,0,0,1,1.82-1.51,2.33,2.33,0,0,1,.29,0v1.1a1.84,1.84,0,0,0-.32,0,1.75,1.75,0,0,0-1.62,1.35,3.35,3.35,0,0,0-.14,1v2.37h-1.11Z"/><path class="cls-11" d="M347.66,348.53h-.75v-.89h.79V346h1.07v1.67h1.39v.89h-1.39v2.57a1.15,1.15,0,0,0,1.23,1.3,1.67,1.67,0,0,0,.27,0v1a3.48,3.48,0,0,1-.39,0,2,2,0,0,1-2.22-2.16Z"/><path class="cls-11" d="M351.51,352.16h1.17v1.18h-1.17Z"/><path class="cls-11" d="M355.51,347.56v6a2.23,2.23,0,0,1-2.59,2.13v-.94h.25a1.14,1.14,0,0,0,1.24-1.27v-5.9Zm-1.11-2.28h1.12v1.13H354.4Z"/><path class="cls-11" d="M357.31,351.84a2.49,2.49,0,0,0,1.66.67c.48,0,.95-.25.95-.72,0-1.06-3-.84-3-2.72,0-1.05.93-1.65,2.09-1.65a2.61,2.61,0,0,1,1.86.64l-.45.84a2.09,2.09,0,0,0-1.43-.52c-.47,0-.94.21-.94.71,0,1,3,.81,3,2.7,0,1-.82,1.68-2.08,1.68a3.13,3.13,0,0,1-2.2-.84Z"/><path class="cls-11" d="M365.36,351.84a2.48,2.48,0,0,0,1.65.67c.48,0,1-.25,1-.72,0-1.06-3-.84-3-2.72,0-1.05.93-1.65,2.08-1.65a2.58,2.58,0,0,1,1.86.64l-.44.84a2.09,2.09,0,0,0-1.43-.52c-.48,0-.94.21-.94.71,0,1,3,.81,3,2.7,0,1-.82,1.68-2.09,1.68a3.12,3.12,0,0,1-2.19-.84Z"/><path class="cls-11" d="M373.1,347.42a3,3,0,1,1-3.12,3A3,3,0,0,1,373.1,347.42Zm0,5.09a2.07,2.07,0,1,0-2-2.07A2,2,0,0,0,373.1,352.51Z"/><path class="cls-11" d="M377.46,345.28h1.11v6.29c0,.69.27.82.61.82h.2v1a3.55,3.55,0,0,1-.37,0c-.62,0-1.55-.17-1.55-1.62Z"/><path class="cls-11" d="M380.48,347.56h1.1V351c0,.8.16,1.43,1.09,1.43a2,2,0,0,0,1.87-2.17v-2.71h1.11v5.78h-1.08v-.77a2.83,2.83,0,0,1,0-.42h0a2.32,2.32,0,0,1-2.12,1.32c-1.3,0-2-.68-2-2.21Z"/><path class="cls-11" d="M387.62,348.53h-.75v-.89h.79V346h1.07v1.67h1.39v.89h-1.39v2.57a1.15,1.15,0,0,0,1.23,1.3,1.46,1.46,0,0,0,.26,0v1a3.39,3.39,0,0,1-.38,0,2,2,0,0,1-2.22-2.16Z"/><path class="cls-11" d="M391.46,345.28h1.12v1.13h-1.12Zm0,2.28h1.11v5.78h-1.11Z"/><path class="cls-11" d="M397,347.42a3,3,0,1,1-3.12,3A3,3,0,0,1,397,347.42Zm0,5.09a2.07,2.07,0,1,0-2-2.07A2,2,0,0,0,397,352.51Z"/><path class="cls-11" d="M401.44,347.56h1.07v.76c0,.23,0,.43,0,.43h0a2.34,2.34,0,0,1,2.17-1.33c1.36,0,2,.75,2,2.22v3.7h-1.1v-3.45c0-.81-.18-1.45-1.1-1.45a1.89,1.89,0,0,0-1.83,1.41,3.15,3.15,0,0,0-.09.78v2.71h-1.1Z"/><path class="cls-11" d="M411.56,348.53h-.72v-.89h.72v-.27a2,2,0,0,1,2.17-2.15,2.67,2.67,0,0,1,.42,0v.95a1.73,1.73,0,0,0-.28,0,1.1,1.1,0,0,0-1.21,1.21v.25H414v.89h-1.37v4.81h-1.1Z"/><path class="cls-11" d="M417.78,347.42a3,3,0,1,1-3.11,3A3,3,0,0,1,417.78,347.42Zm0,5.09a2.07,2.07,0,1,0-2-2.07A2,2,0,0,0,417.78,352.51Z"/><path class="cls-11" d="M422.21,347.56h1.08v1a3.32,3.32,0,0,1,0,.44h0a2,2,0,0,1,1.82-1.51,2.33,2.33,0,0,1,.29,0v1.1a1.84,1.84,0,0,0-.32,0,1.75,1.75,0,0,0-1.62,1.35,3.67,3.67,0,0,0-.14,1v2.37h-1.11Z"/><path class="cls-11" d="M429.67,348.53h-.75v-.89h.78V346h1.08v1.67h1.39v.89h-1.39v2.57a1.15,1.15,0,0,0,1.23,1.3,1.46,1.46,0,0,0,.26,0v1a3.48,3.48,0,0,1-.39,0,2,2,0,0,1-2.21-2.16Z"/><path class="cls-11" d="M433.52,345.28h1.1v3c0,.28,0,.48,0,.48h0a2.33,2.33,0,0,1,2.14-1.29c1.36,0,2,.75,2,2.22v3.7h-1.1v-3.45c0-.81-.17-1.45-1.1-1.45a1.91,1.91,0,0,0-1.83,1.43,3,3,0,0,0-.09.76v2.71h-1.1Z"/><path class="cls-11" d="M440.39,345.28h1.12v1.13h-1.12Zm0,2.28h1.11v5.78H440.4Z"/><path class="cls-11" d="M443.31,351.84a2.49,2.49,0,0,0,1.66.67c.48,0,1-.25,1-.72,0-1.06-3-.84-3-2.72,0-1.05.93-1.65,2.09-1.65a2.61,2.61,0,0,1,1.86.64l-.45.84a2.08,2.08,0,0,0-1.42-.52c-.48,0-1,.21-1,.71,0,1,3,.81,3,2.7,0,1-.83,1.68-2.09,1.68a3.09,3.09,0,0,1-2.19-.84Z"/><path class="cls-11" d="M450.62,347.56h1.17l1.2,4.05c.09.3.14.62.15.62h0s.06-.32.15-.62l1.26-4h1l1.25,4c.09.3.16.62.16.62h0a5.36,5.36,0,0,1,.14-.62l1.21-4.05h1.16l-1.86,5.78h-1.22l-1.2-3.71c-.09-.3-.16-.63-.16-.63h0s-.07.33-.16.63l-1.19,3.71h-1.23Z"/><path class="cls-11" d="M460.57,345.28h1.12v1.13h-1.12Zm0,2.28h1.1v5.78h-1.1Z"/><path class="cls-11" d="M463.67,348.53h-.76v-.89h.79V346h1.07v1.67h1.4v.89h-1.4v2.57a1.15,1.15,0,0,0,1.24,1.3,1.46,1.46,0,0,0,.26,0v1a3.48,3.48,0,0,1-.39,0,2,2,0,0,1-2.21-2.16Z"/><path class="cls-11" d="M467.52,345.28h1.1v3c0,.28,0,.48,0,.48h0a2.33,2.33,0,0,1,2.14-1.29c1.35,0,2,.75,2,2.22v3.7h-1.1v-3.45c0-.81-.18-1.45-1.1-1.45a1.91,1.91,0,0,0-1.83,1.43,3,3,0,0,0-.09.76v2.71h-1.1Z"/><path class="cls-11" d="M480.35,349.73h.25v-.1a1.13,1.13,0,0,0-1.27-1.27,2.93,2.93,0,0,0-1.61.56l-.45-.81a3.59,3.59,0,0,1,2.15-.69,2.06,2.06,0,0,1,2.29,2.26v3.66h-1v-.55c0-.27,0-.46,0-.46h0a2,2,0,0,1-1.85,1.14,1.8,1.8,0,0,1-2-1.76C476.87,349.81,479.38,349.73,480.35,349.73Zm-1.28,2.85a1.75,1.75,0,0,0,1.54-1.84v-.18h-.29c-.83,0-2.34.06-2.34,1.1A1,1,0,0,0,479.07,352.58Z"/><path class="cls-11" d="M488.4,354.77c1,0,1.82-.44,1.82-1.62v-.42c0-.18,0-.36,0-.36h0a1.83,1.83,0,0,1-1.71.9c-1.61,0-2.58-1.29-2.58-3s.92-2.89,2.52-2.89a2,2,0,0,1,1.82.86h0a1.62,1.62,0,0,1,0-.18v-.54h1.06v5.54c0,1.9-1.45,2.63-2.91,2.63a4.45,4.45,0,0,1-2-.48l.37-.86A3.79,3.79,0,0,0,488.4,354.77Zm1.84-4.45c0-1.5-.73-1.94-1.63-1.94s-1.57.73-1.57,1.91.64,2,1.68,2C489.51,352.31,490.24,351.83,490.24,350.32Z"/><path class="cls-11" d="M493.06,347.56h1.08v1a3.32,3.32,0,0,1,0,.44h0a2,2,0,0,1,1.82-1.51,2.33,2.33,0,0,1,.29,0v1.1a1.84,1.84,0,0,0-.32,0,1.75,1.75,0,0,0-1.62,1.35,3.67,3.67,0,0,0-.14,1v2.37h-1.11Z"/><path class="cls-11" d="M500.36,349.73h.25v-.1a1.13,1.13,0,0,0-1.27-1.27,2.93,2.93,0,0,0-1.61.56l-.45-.81a3.6,3.6,0,0,1,2.16-.69,2.05,2.05,0,0,1,2.28,2.26v3.66h-1v-.55c0-.27,0-.46,0-.46h0a2,2,0,0,1-1.85,1.14,1.8,1.8,0,0,1-2-1.76C496.88,349.81,499.39,349.73,500.36,349.73Zm-1.28,2.85a1.75,1.75,0,0,0,1.54-1.84v-.18h-.28c-.84,0-2.34.06-2.34,1.1A1,1,0,0,0,499.08,352.58Z"/><path class="cls-11" d="M503.37,347.56h1.08v.76c0,.23,0,.43,0,.43h0a2.34,2.34,0,0,1,2.17-1.33c1.35,0,2,.75,2,2.22v3.7h-1.11v-3.45c0-.81-.17-1.45-1.09-1.45a1.89,1.89,0,0,0-1.83,1.41,2.74,2.74,0,0,0-.09.78v2.71h-1.11Z"/><path class="cls-11" d="M510.18,347.56h1.11V351c0,.8.16,1.43,1.08,1.43a2,2,0,0,0,1.87-2.17v-2.71h1.11v5.78h-1.07v-.77c0-.24,0-.42,0-.42h0a2.34,2.34,0,0,1-2.13,1.32c-1.3,0-2-.68-2-2.21Z"/><path class="cls-11" d="M517,345.28h1.1v6.29c0,.69.28.82.62.82h.2v1s-.18,0-.37,0c-.63,0-1.55-.17-1.55-1.62Z"/><path class="cls-11" d="M523.12,349.73h.26v-.1a1.13,1.13,0,0,0-1.27-1.27,2.93,2.93,0,0,0-1.61.56l-.46-.81a3.63,3.63,0,0,1,2.16-.69,2.05,2.05,0,0,1,2.28,2.26v3.66h-1v-.55c0-.27,0-.46,0-.46h0a2,2,0,0,1-1.85,1.14,1.81,1.81,0,0,1-2-1.76C519.64,349.81,522.15,349.73,523.12,349.73Zm-1.27,2.85a1.75,1.75,0,0,0,1.54-1.84v-.18h-.29c-.83,0-2.34.06-2.34,1.1A1,1,0,0,0,521.85,352.58Z"/><path class="cls-11" d="M526.14,347.56h1.07v1c0,.24,0,.44,0,.44h0a2,2,0,0,1,1.83-1.51,2.07,2.07,0,0,1,.28,0v1.1a1.7,1.7,0,0,0-.32,0,1.76,1.76,0,0,0-1.62,1.35,3.66,3.66,0,0,0-.13,1v2.37h-1.11Z"/><path class="cls-11" d="M533.35,345.28h1.11v2.63c0,.29,0,.49,0,.49h0a2,2,0,0,1,1.85-1c1.55,0,2.54,1.24,2.54,3s-1.11,3-2.63,3a2.06,2.06,0,0,1-1.81-1h0a2.89,2.89,0,0,1,0,.43v.43h-1.06Zm2.71,7.24c.91,0,1.67-.75,1.67-2.06s-.68-2.07-1.64-2.07-1.66.61-1.66,2.08C534.43,351.5,535,352.52,536.06,352.52Z"/><path class="cls-11" d="M540.2,347.56h1.08v1c0,.24,0,.44,0,.44h0a2,2,0,0,1,1.82-1.51,2.33,2.33,0,0,1,.29,0v1.1a1.84,1.84,0,0,0-.32,0,1.75,1.75,0,0,0-1.62,1.35,3.67,3.67,0,0,0-.14,1v2.37H540.2Z"/><path class="cls-11" d="M546.94,347.42a2.46,2.46,0,0,1,2.5,2.71c0,.15,0,.48,0,.48h-4.22a1.89,1.89,0,0,0,2,1.9,2.76,2.76,0,0,0,1.71-.67l.46.81a3.46,3.46,0,0,1-2.24.82,2.94,2.94,0,0,1-3.06-3A2.84,2.84,0,0,1,546.94,347.42Zm1.37,2.35a1.36,1.36,0,0,0-1.39-1.47,1.66,1.66,0,0,0-1.69,1.47Z"/><path class="cls-11" d="M553.8,349.73h.25v-.1a1.12,1.12,0,0,0-1.26-1.27,2.93,2.93,0,0,0-1.61.56l-.46-.81a3.6,3.6,0,0,1,2.16-.69,2.05,2.05,0,0,1,2.28,2.26v3.66h-1v-.55c0-.27,0-.46,0-.46h0a2,2,0,0,1-1.85,1.14,1.8,1.8,0,0,1-2-1.76C550.32,349.81,552.83,349.73,553.8,349.73Zm-1.28,2.85a1.75,1.75,0,0,0,1.54-1.84v-.18h-.28c-.84,0-2.34.06-2.34,1.1A1,1,0,0,0,552.52,352.58Z"/><path class="cls-11" d="M556.82,345.28h1.1v4.4h.81l1.58-2.12h1.25l-1.91,2.54v0l2.13,3.21h-1.29l-1.73-2.72h-.84v2.72h-1.1Z"/><path class="cls-11" d="M565,347.42a1.91,1.91,0,0,1,1.78.92h0a2.49,2.49,0,0,1,0-.39v-2.67h1.11v8.06h-1v-.55c0-.23,0-.39,0-.39h0a2,2,0,0,1-1.9,1.07c-1.56,0-2.54-1.23-2.54-3S563.47,347.42,565,347.42Zm.15,5.09c.86,0,1.67-.6,1.67-2.07,0-1-.54-2.06-1.64-2.06-.91,0-1.66.76-1.66,2.07S564.19,352.51,565.15,352.51Z"/><path class="cls-11" d="M572.32,347.42a3,3,0,1,1-3.12,3A3,3,0,0,1,572.32,347.42Zm0,5.09a2.07,2.07,0,1,0-2-2.07A2,2,0,0,0,572.32,352.51Z"/><path class="cls-11" d="M576.08,347.56h1.17l1.2,4.05c.09.3.14.62.15.62h0s.06-.32.15-.62l1.26-4h1l1.25,4c.09.3.15.62.15.62h0a4.36,4.36,0,0,1,.13-.62l1.21-4.05H585l-1.86,5.78H581.9l-1.2-3.71c-.09-.3-.16-.63-.16-.63h0s-.07.33-.16.63l-1.19,3.71h-1.23Z"/><path class="cls-11" d="M586,347.56h1.08v.76a3.26,3.26,0,0,1,0,.43h0a2.32,2.32,0,0,1,2.16-1.33c1.36,0,2,.75,2,2.22v3.7h-1.11v-3.45c0-.81-.17-1.45-1.09-1.45a1.89,1.89,0,0,0-1.83,1.41,2.74,2.74,0,0,0-.09.78v2.71H586Z"/><path class="cls-11" d="M592.93,352.16h1.16v1.18h-1.16Z"/><path class="cls-11" d="M45.88,81h1.43l2.22,5.24c.22.53.48,1.3.48,1.3h0s.26-.77.48-1.3L52.73,81h1.43l.78,9.68H53.6l-.48-6.1c0-.59,0-1.42,0-1.42h0s-.29.89-.53,1.42L50.62,89h-1.2L47.5,84.6c-.22-.52-.52-1.45-.52-1.45h0s0,.86,0,1.45l-.46,6.1H45.1Z"/><path class="cls-11" d="M60.61,86.37h.3v-.13a1.35,1.35,0,0,0-1.52-1.52,3.48,3.48,0,0,0-1.93.68l-.55-1a4.36,4.36,0,0,1,2.59-.82,2.46,2.46,0,0,1,2.74,2.71V90.7H61V90c0-.31,0-.55,0-.55h0a2.41,2.41,0,0,1-2.22,1.37,2.17,2.17,0,0,1-2.36-2.11C56.43,86.46,59.44,86.37,60.61,86.37Zm-1.54,3.42a2.1,2.1,0,0,0,1.85-2.2v-.22h-.34c-1,0-2.81.07-2.81,1.31A1.16,1.16,0,0,0,59.07,89.79Z"/><path class="cls-11" d="M64.23,83.76h1.28v.92c0,.28,0,.51,0,.51h0a2.84,2.84,0,0,1,2.61-1.59c1.63,0,2.38.89,2.38,2.66V90.7H69.17V86.56c0-1-.2-1.74-1.31-1.74a2.28,2.28,0,0,0-2.2,1.7,3.36,3.36,0,0,0-.1.93V90.7H64.23Z"/><path class="cls-11" d="M76.1,86.37h.31v-.13a1.35,1.35,0,0,0-1.53-1.52A3.52,3.52,0,0,0,73,85.4l-.55-1A4.36,4.36,0,0,1,75,83.6a2.46,2.46,0,0,1,2.74,2.71V90.7H76.5V90a4.93,4.93,0,0,1,0-.55h0a2.4,2.4,0,0,1-2.22,1.37,2.17,2.17,0,0,1-2.36-2.11C71.92,86.46,74.94,86.37,76.1,86.37Zm-1.53,3.42a2.1,2.1,0,0,0,1.85-2.2v-.22h-.34c-1,0-2.81.07-2.81,1.31A1.16,1.16,0,0,0,74.57,89.79Z"/><path class="cls-11" d="M82.24,92.42c1.21,0,2.19-.53,2.19-1.94V90c0-.22,0-.44,0-.44h0a2.19,2.19,0,0,1-2,1.09c-1.94,0-3.1-1.55-3.1-3.55s1.11-3.47,3-3.47a2.32,2.32,0,0,1,2.18,1h0s0-.1,0-.22v-.65h1.27v6.65c0,2.29-1.74,3.17-3.49,3.17A5.42,5.42,0,0,1,79.9,93l.44-1A4.48,4.48,0,0,0,82.24,92.42Zm2.22-5.34c0-1.81-.88-2.33-2-2.33s-1.89.88-1.89,2.29.77,2.42,2,2.42C83.58,89.46,84.46,88.89,84.46,87.08Z"/><path class="cls-11" d="M87.83,81h1.34v1.36H87.83Zm0,2.74h1.33V90.7H87.84Z"/><path class="cls-11" d="M91.26,83.76h1.28v.92c0,.28,0,.51,0,.51h0a2.84,2.84,0,0,1,2.61-1.59c1.63,0,2.38.89,2.38,2.66V90.7H96.2V86.56c0-1-.2-1.74-1.31-1.74a2.28,2.28,0,0,0-2.2,1.7,3.34,3.34,0,0,0-.11.93V90.7H91.26Z"/><path class="cls-11" d="M102,92.42c1.2,0,2.19-.53,2.19-1.94V90c0-.22,0-.44,0-.44h0a2.2,2.2,0,0,1-2.06,1.09c-1.93,0-3.1-1.55-3.1-3.55s1.11-3.47,3-3.47a2.32,2.32,0,0,1,2.18,1h0s0-.1,0-.22v-.65h1.27v6.65c0,2.29-1.74,3.17-3.49,3.17A5.42,5.42,0,0,1,99.7,93l.43-1A4.56,4.56,0,0,0,102,92.42Zm2.22-5.34c0-1.81-.88-2.33-2-2.33s-1.89.88-1.89,2.29.76,2.42,2,2.42C103.38,89.46,104.26,88.89,104.26,87.08Z"/><path class="cls-11" d="M65.64,184.43H62l-1,2.78H59.64l3.48-9.67h1.42L68,187.21H66.61Zm-1.82-5.57s-.22.88-.39,1.37l-1.08,3.07h2.93l-1.07-3.07c-.16-.49-.37-1.37-.37-1.37Z"/><path class="cls-11" d="M71.69,188.94c1.21,0,2.2-.54,2.2-1.95v-.51c0-.22,0-.44,0-.44h0a2.19,2.19,0,0,1-2.05,1.09c-1.94,0-3.1-1.55-3.1-3.55s1.11-3.47,3-3.47a2.32,2.32,0,0,1,2.18,1h0s0-.1,0-.22v-.64h1.27v6.64c0,2.29-1.74,3.17-3.49,3.17a5.42,5.42,0,0,1-2.37-.58l.44-1A4.41,4.41,0,0,0,71.69,188.94Zm2.22-5.35c0-1.81-.87-2.33-2-2.33s-1.89.88-1.89,2.29.77,2.43,2,2.43C73,186,73.91,185.4,73.91,183.59Z"/><path class="cls-11" d="M80.28,180.11a3,3,0,0,1,3,3.25c0,.18,0,.57,0,.57h-5a2.26,2.26,0,0,0,2.38,2.29,3.33,3.33,0,0,0,2.06-.81l.54,1a4.11,4.11,0,0,1-2.68,1,3.52,3.52,0,0,1-3.67-3.63A3.4,3.4,0,0,1,80.28,180.11Zm1.65,2.82a1.63,1.63,0,0,0-1.67-1.76,2,2,0,0,0-2,1.76Z"/><path class="cls-11" d="M84.9,180.28h1.29v.91a4.4,4.4,0,0,1,0,.51h0a2.81,2.81,0,0,1,2.6-1.59c1.63,0,2.38.89,2.38,2.66v4.44H89.85v-4.14c0-1-.21-1.74-1.32-1.74a2.28,2.28,0,0,0-2.19,1.7,3.34,3.34,0,0,0-.11.93v3.25H84.9Z"/><path class="cls-11" d="M96.38,180.11a3.49,3.49,0,0,1,2.6,1l-.63.93a2.79,2.79,0,0,0-1.91-.8A2.37,2.37,0,0,0,94,183.73a2.4,2.4,0,0,0,2.46,2.49,3.14,3.14,0,0,0,2.13-.93l.54,1a3.8,3.8,0,0,1-2.77,1.11,3.63,3.63,0,1,1,0-7.26Z"/><path class="cls-11" d="M100.15,188.65a1.53,1.53,0,0,0,.81.29,1.42,1.42,0,0,0,1.24-1l.34-.79-2.9-6.85h1.49l1.74,4.53a8.43,8.43,0,0,1,.26.84h0s.11-.47.23-.82l1.69-4.55h1.44l-3.25,8.18a2.35,2.35,0,0,1-3.59,1.2Z"/><path class="cls-11" d="M6.41,48.47H10a2.88,2.88,0,0,1,3,3,2.92,2.92,0,0,1-3,3.07H7.77v3.58H6.41Zm3.32,4.92a1.75,1.75,0,0,0,1.88-1.89,1.72,1.72,0,0,0-1.87-1.85h-2v3.74Z"/><path class="cls-11" d="M14.45,51.21h1.29v1.21c0,.29,0,.52,0,.52h0a2.39,2.39,0,0,1,2.2-1.81,2.24,2.24,0,0,1,.34,0v1.31a2,2,0,0,0-.39,0A2.1,2.1,0,0,0,16,54.06a4,4,0,0,0-.17,1.25v2.84H14.45Z"/><path class="cls-11" d="M22.78,51.05a3.63,3.63,0,1,1,0,7.26,3.63,3.63,0,1,1,0-7.26Zm0,6.11a2.48,2.48,0,1,0-2.38-2.49A2.4,2.4,0,0,0,22.78,57.16Z"/><path class="cls-11" d="M30.79,51.05a2.3,2.3,0,0,1,2.13,1.09h0a3.44,3.44,0,0,1,0-.46V48.47h1.33v9.68H33v-.66c0-.28,0-.47,0-.47h0a2.43,2.43,0,0,1-2.28,1.29c-1.87,0-3.05-1.48-3.05-3.63S29,51.05,30.79,51.05ZM31,57.16c1,0,2-.73,2-2.49,0-1.24-.64-2.47-2-2.47-1.09,0-2,.9-2,2.48S29.81,57.16,31,57.16Z"/><path class="cls-11" d="M36.24,51.21h1.33v4.14c0,1,.19,1.73,1.3,1.73a2.39,2.39,0,0,0,2.25-2.62V51.21h1.32v6.94H41.16v-.92c0-.29,0-.51,0-.51h0a2.8,2.8,0,0,1-2.55,1.59c-1.56,0-2.37-.82-2.37-2.66Z"/><path class="cls-11" d="M47.75,51.05a3.5,3.5,0,0,1,2.6,1l-.63.93a2.82,2.82,0,0,0-1.92-.79,2.36,2.36,0,0,0-2.41,2.47,2.4,2.4,0,0,0,2.45,2.49A3.15,3.15,0,0,0,50,56.23l.53,1a3.76,3.76,0,0,1-2.76,1.11,3.63,3.63,0,1,1,0-7.26Z"/><path class="cls-11" d="M52.31,52.38H51.4V51.31h1v-2h1.29v2h1.67v1.07H53.64v3.08A1.38,1.38,0,0,0,55.12,57a2.08,2.08,0,0,0,.31,0v1.17a3.26,3.26,0,0,1-.46,0,2.39,2.39,0,0,1-2.66-2.59Z"/><path class="cls-11" d="M60.72,48.47h3.21c3,0,4.9,1.77,4.9,4.83a4.52,4.52,0,0,1-4.9,4.85H60.72ZM63.83,57a3.34,3.34,0,0,0,3.6-3.67,3.33,3.33,0,0,0-3.6-3.65H62.08V57Z"/><path class="cls-11" d="M73.57,51.05a3,3,0,0,1,3,3.25c0,.17,0,.57,0,.57H71.47a2.27,2.27,0,0,0,2.39,2.29,3.29,3.29,0,0,0,2-.81l.55,1a4.12,4.12,0,0,1-2.68,1,3.54,3.54,0,0,1-3.68-3.63A3.4,3.4,0,0,1,73.57,51.05Zm1.64,2.82a1.64,1.64,0,0,0-1.67-1.77,2,2,0,0,0-2,1.77Z"/><path class="cls-11" d="M78.27,56.35a3,3,0,0,0,2,.81c.57,0,1.15-.3,1.15-.86,0-1.28-3.57-1-3.57-3.28,0-1.26,1.13-2,2.51-2a3.14,3.14,0,0,1,2.24.77l-.54,1a2.54,2.54,0,0,0-1.71-.62c-.58,0-1.14.25-1.14.85,0,1.25,3.56,1,3.56,3.25,0,1.15-1,2-2.5,2a3.77,3.77,0,0,1-2.64-1Z"/><path class="cls-11" d="M84.31,48.47h1.34v1.36H84.31Zm0,2.74h1.33v6.94H84.32Z"/><path class="cls-11" d="M90.26,59.87c1.2,0,2.19-.53,2.19-1.94v-.51c0-.22,0-.44,0-.44h0a2.21,2.21,0,0,1-2.06,1.08c-1.93,0-3.1-1.54-3.1-3.55s1.11-3.46,3-3.46a2.32,2.32,0,0,1,2.18,1h0a1.25,1.25,0,0,1,0-.22v-.65h1.28v6.65c0,2.29-1.74,3.16-3.5,3.16a5.48,5.48,0,0,1-2.37-.57l.44-1A4.56,4.56,0,0,0,90.26,59.87Zm2.22-5.34c0-1.81-.88-2.33-2-2.33s-1.89.88-1.89,2.29.76,2.42,2,2.42C91.6,56.91,92.48,56.34,92.48,54.53Z"/><path class="cls-11" d="M95.86,51.21h1.29v.92a4.63,4.63,0,0,1,0,.51h0a2.8,2.8,0,0,1,2.6-1.59c1.63,0,2.39.89,2.39,2.66v4.44h-1.33V54c0-1-.21-1.74-1.32-1.74A2.28,2.28,0,0,0,97.3,54a3.34,3.34,0,0,0-.11.93v3.25H95.86Z"/><path class="cls-11" d="M30.69,274.05h3.53a2.89,2.89,0,0,1,3.05,3,2.93,2.93,0,0,1-3.05,3.07H32v3.57H30.69ZM34,279a1.75,1.75,0,0,0,1.88-1.89A1.71,1.71,0,0,0,34,275.23H32V279Z"/><path class="cls-11" d="M38.73,276.79H40V278a4.78,4.78,0,0,1,0,.53h0a2.36,2.36,0,0,1,2.19-1.81,3.09,3.09,0,0,1,.34,0v1.32a1.85,1.85,0,0,0-.38,0,2.11,2.11,0,0,0-2,1.63,4.33,4.33,0,0,0-.16,1.25v2.83H38.73Z"/><path class="cls-11" d="M43.85,274.05H45.2v1.35H43.85Zm0,2.74H45.2v6.93H43.87Z"/><path class="cls-11" d="M47.28,276.79h1.29v.92a4.33,4.33,0,0,1,0,.5h0a2.81,2.81,0,0,1,2.6-1.59c1.63,0,2.38.9,2.38,2.66v4.44H52.23v-4.14c0-1-.21-1.74-1.32-1.74a2.27,2.27,0,0,0-2.19,1.7,3.42,3.42,0,0,0-.11.94v3.24H47.28Z"/><path class="cls-11" d="M55.83,278h-.91v-1.07h.95v-2h1.29v2h1.67V278H57.16V281a1.38,1.38,0,0,0,1.48,1.56,1.41,1.41,0,0,0,.31,0v1.18a3.26,3.26,0,0,1-.46,0,2.4,2.4,0,0,1-2.66-2.59Z"/><path class="cls-11" d="M64.24,274.05h3.21c3,0,4.9,1.77,4.9,4.82a4.52,4.52,0,0,1-4.9,4.85H64.24Zm3.11,8.49a3.66,3.66,0,0,0,0-7.31H65.6v7.31Z"/><path class="cls-11" d="M77.09,276.62a3,3,0,0,1,3,3.25c0,.18,0,.58,0,.58H75a2.28,2.28,0,0,0,2.39,2.29,3.29,3.29,0,0,0,2.05-.81l.55,1a4.12,4.12,0,0,1-2.68,1,3.54,3.54,0,0,1-3.68-3.63A3.41,3.41,0,0,1,77.09,276.62Zm1.64,2.83a1.64,1.64,0,0,0-1.67-1.77,2,2,0,0,0-2,1.77Z"/><path class="cls-11" d="M81.79,281.93a3,3,0,0,0,2,.81c.57,0,1.15-.31,1.15-.87,0-1.27-3.57-1-3.57-3.27,0-1.26,1.13-2,2.51-2a3.14,3.14,0,0,1,2.24.77l-.54,1a2.54,2.54,0,0,0-1.71-.62c-.58,0-1.14.25-1.14.85,0,1.25,3.56,1,3.56,3.25,0,1.15-1,2-2.5,2a3.71,3.71,0,0,1-2.63-1Z"/><path class="cls-11" d="M87.83,274.05h1.34v1.35H87.83Zm0,2.74h1.33v6.93H87.84Z"/><path class="cls-11" d="M93.78,285.45c1.2,0,2.19-.54,2.19-1.95V283c0-.22,0-.44,0-.44h0a2.23,2.23,0,0,1-2.06,1.08c-1.93,0-3.1-1.55-3.1-3.55s1.11-3.47,3-3.47a2.32,2.32,0,0,1,2.18,1h0a1.12,1.12,0,0,1,0-.22v-.64H97.3v6.64c0,2.29-1.74,3.17-3.5,3.17a5.35,5.35,0,0,1-2.37-.58l.44-1A4.48,4.48,0,0,0,93.78,285.45ZM96,280.1c0-1.8-.88-2.33-2-2.33s-1.89.88-1.89,2.29.76,2.43,2,2.43C95.12,282.49,96,281.91,96,280.1Z"/><path class="cls-11" d="M99.38,276.79h1.29v.92a4.33,4.33,0,0,1,0,.5h0a2.81,2.81,0,0,1,2.6-1.59c1.63,0,2.39.9,2.39,2.66v4.44h-1.33v-4.14c0-1-.21-1.74-1.32-1.74a2.28,2.28,0,0,0-2.19,1.7,3.42,3.42,0,0,0-.11.94v3.24H99.38Z"/><path class="cls-11" d="M42.28,112.43H43.7l2.22,5.24c.22.53.48,1.3.48,1.3h0s.26-.77.48-1.3l2.22-5.24h1.43l.78,9.68H50l-.48-6.1c0-.59,0-1.43,0-1.43h0s-.28.9-.52,1.43L47,120.37H45.81L43.9,116c-.22-.52-.52-1.45-.52-1.45h0s0,.86,0,1.45l-.47,6.1H41.5Z"/><path class="cls-11" d="M56.38,115a3,3,0,0,1,3,3.25c0,.18,0,.57,0,.57H54.28a2.27,2.27,0,0,0,2.38,2.29,3.3,3.3,0,0,0,2.06-.81l.55,1a4.15,4.15,0,0,1-2.69,1,3.52,3.52,0,0,1-3.67-3.63A3.39,3.39,0,0,1,56.38,115ZM58,117.83a1.64,1.64,0,0,0-1.67-1.77,2,2,0,0,0-2,1.77Z"/><path class="cls-11" d="M61,115.17h1.29v.92a4.4,4.4,0,0,1,0,.51h0a2.84,2.84,0,0,1,2.6-1.59c1.64,0,2.39.89,2.39,2.66v4.44H65.94V118c0-1-.21-1.74-1.32-1.74a2.28,2.28,0,0,0-2.19,1.7,3.34,3.34,0,0,0-.11.93v3.25H61Z"/><path class="cls-11" d="M69.54,116.34h-.9v-1.07h.94v-2h1.29v2h1.67v1.07H70.87v3.08A1.37,1.37,0,0,0,72.35,121a2.33,2.33,0,0,0,.32,0v1.17a3.51,3.51,0,0,1-.47,0,2.39,2.39,0,0,1-2.66-2.59Z"/><path class="cls-11" d="M77.39,115a3.63,3.63,0,1,1-3.74,3.62A3.62,3.62,0,0,1,77.39,115Zm0,6.11A2.48,2.48,0,1,0,75,118.63,2.4,2.4,0,0,0,77.39,121.12Z"/><path class="cls-11" d="M82.71,115.17H84v1.21a4.48,4.48,0,0,1,0,.52h0a2.37,2.37,0,0,1,2.19-1.81,2.08,2.08,0,0,1,.34,0v1.31a2,2,0,0,0-.38,0,2.12,2.12,0,0,0-2,1.63,4.38,4.38,0,0,0-.16,1.25v2.84H82.71Z"/><path class="cls-11" d="M87.83,112.43h1.34v1.36H87.83Zm0,2.74h1.32v6.94H87.85Z"/><path class="cls-11" d="M91.26,115.17h1.28v.92c0,.28,0,.51,0,.51h0A2.84,2.84,0,0,1,95.15,115c1.63,0,2.38.89,2.38,2.66v4.44H96.2V118c0-1-.2-1.74-1.31-1.74a2.28,2.28,0,0,0-2.2,1.7,3.36,3.36,0,0,0-.1.93v3.25H91.26Z"/><path class="cls-11" d="M102,123.83c1.2,0,2.19-.53,2.19-1.94v-.51c0-.22,0-.44,0-.44h0a2.2,2.2,0,0,1-2.06,1.09c-1.93,0-3.09-1.55-3.09-3.55s1.11-3.47,3-3.47a2.3,2.3,0,0,1,2.18,1h0s0-.1,0-.22v-.65h1.27v6.65c0,2.29-1.74,3.16-3.49,3.16a5.41,5.41,0,0,1-2.37-.57l.43-1A4.56,4.56,0,0,0,102,123.83Zm2.22-5.34c0-1.81-.88-2.33-2-2.33s-1.89.88-1.89,2.29.77,2.42,2,2.42C103.38,120.87,104.26,120.3,104.26,118.49Z"/><path class="cls-11" d="M45.21,211.23h1.36v9.67H45.21Z"/><path class="cls-11" d="M48.92,214h1.29v.92a4.33,4.33,0,0,1,0,.5h0a2.82,2.82,0,0,1,2.6-1.58c1.63,0,2.39.89,2.39,2.65v4.44H53.87v-4.14c0-1-.21-1.74-1.32-1.74a2.28,2.28,0,0,0-2.19,1.7,3.42,3.42,0,0,0-.11.94v3.24H48.92Z"/><path class="cls-11" d="M57.27,219.11a3,3,0,0,0,2,.81c.58,0,1.15-.31,1.15-.87,0-1.27-3.56-1-3.56-3.27,0-1.26,1.12-2,2.51-2a3.12,3.12,0,0,1,2.23.76l-.53,1a2.56,2.56,0,0,0-1.71-.61c-.58,0-1.14.24-1.14.85,0,1.24,3.56,1,3.56,3.24,0,1.15-1,2-2.51,2a3.71,3.71,0,0,1-2.63-1Z"/><path class="cls-11" d="M63.61,215.13h-.9v-1.06h.94v-2h1.29v2h1.67v1.06H64.94v3.09a1.38,1.38,0,0,0,1.48,1.56,1.41,1.41,0,0,0,.31,0v1.18a3.26,3.26,0,0,1-.46,0,2.4,2.4,0,0,1-2.66-2.59Z"/><path class="cls-11" d="M68.23,214h1.28v1.21c0,.28,0,.52,0,.52h0a2.38,2.38,0,0,1,2.2-1.81l.34,0v1.32a2,2,0,0,0-.38,0,2.1,2.1,0,0,0-2,1.63,4.33,4.33,0,0,0-.16,1.25v2.83H68.23Z"/><path class="cls-11" d="M73.27,214H74.6v4.14c0,1,.19,1.72,1.3,1.72a2.38,2.38,0,0,0,2.25-2.61V214h1.33v6.93H78.19V220c0-.28,0-.5,0-.5h0a2.82,2.82,0,0,1-2.55,1.59c-1.56,0-2.37-.82-2.37-2.66Z"/><path class="cls-11" d="M84.78,213.81a3.5,3.5,0,0,1,2.6,1l-.63.93a2.82,2.82,0,0,0-1.92-.79,2.36,2.36,0,0,0-2.41,2.46,2.4,2.4,0,0,0,2.45,2.5A3.13,3.13,0,0,0,87,219l.53,1a3.79,3.79,0,0,1-2.76,1.11,3.63,3.63,0,1,1,0-7.26Z"/><path class="cls-11" d="M89.34,215.13h-.91v-1.06h.95v-2h1.29v2h1.67v1.06H90.67v3.09a1.38,1.38,0,0,0,1.48,1.56,1.41,1.41,0,0,0,.31,0v1.18a3.26,3.26,0,0,1-.46,0,2.4,2.4,0,0,1-2.66-2.59Z"/><path class="cls-11" d="M97.19,213.81a3.63,3.63,0,1,1-3.74,3.61A3.61,3.61,0,0,1,97.19,213.81Zm0,6.11a2.48,2.48,0,1,0-2.39-2.5A2.4,2.4,0,0,0,97.19,219.92Z"/><path class="cls-11" d="M102.5,214h1.29v1.21a4.7,4.7,0,0,1,0,.52h0a2.37,2.37,0,0,1,2.19-1.81,3.4,3.4,0,0,1,.35,0v1.32a2,2,0,0,0-.39,0,2.09,2.09,0,0,0-1.94,1.63,4,4,0,0,0-.17,1.25v2.83H102.5Z"/><path class="cls-11" d="M1.32,243.78H4.85a2.88,2.88,0,0,1,3,3,2.92,2.92,0,0,1-3,3.07H2.67v3.57H1.32Zm3.31,4.92a1.75,1.75,0,0,0,1.88-1.89A1.71,1.71,0,0,0,4.65,245h-2v3.74Z"/><path class="cls-11" d="M9.36,246.52h1.29v1.21a4.7,4.7,0,0,1,0,.52h0a2.36,2.36,0,0,1,2.19-1.81,2.08,2.08,0,0,1,.34,0v1.31a2,2,0,0,0-.38,0,2.11,2.11,0,0,0-2,1.63,4.33,4.33,0,0,0-.16,1.25v2.83H9.36Z"/><path class="cls-11" d="M17.69,246.36a3.63,3.63,0,1,1,0,7.26,3.63,3.63,0,1,1,0-7.26Zm0,6.11A2.48,2.48,0,1,0,15.3,250,2.4,2.4,0,0,0,17.69,252.47Z"/><path class="cls-11" d="M25.69,246.36a2.32,2.32,0,0,1,2.14,1.09h0s0-.2,0-.46v-3.21h1.33v9.67H27.89v-.65c0-.28,0-.47,0-.47h0a2.42,2.42,0,0,1-2.27,1.29c-1.88,0-3.06-1.48-3.06-3.63S23.85,246.36,25.69,246.36Zm.18,6.11c1,0,2-.73,2-2.5,0-1.23-.65-2.46-2-2.46-1.1,0-2,.9-2,2.48S24.72,252.47,25.87,252.47Z"/><path class="cls-11" d="M31.14,246.52h1.33v4.14c0,1,.19,1.73,1.3,1.73A2.39,2.39,0,0,0,36,249.77v-3.25h1.33v6.93H36.06v-.91a4.19,4.19,0,0,1,0-.51h0a2.81,2.81,0,0,1-2.55,1.59c-1.56,0-2.37-.82-2.37-2.66Z"/><path class="cls-11" d="M42.65,246.36a3.5,3.5,0,0,1,2.6,1l-.63.93a2.82,2.82,0,0,0-1.92-.79A2.36,2.36,0,0,0,40.29,250a2.41,2.41,0,0,0,2.46,2.5,3.14,3.14,0,0,0,2.13-.93l.54,1a3.8,3.8,0,0,1-2.77,1.11,3.63,3.63,0,1,1,0-7.26Z"/><path class="cls-11" d="M47.21,247.69h-.9v-1.07h.94v-2h1.29v2h1.67v1.07H48.54v3.08A1.38,1.38,0,0,0,50,252.33a1.41,1.41,0,0,0,.31,0v1.18a3.26,3.26,0,0,1-.46,0,2.39,2.39,0,0,1-2.66-2.59Z"/><path class="cls-11" d="M55.65,251.32a3.83,3.83,0,0,0,2.47,1,1.49,1.49,0,0,0,1.67-1.43c0-2.09-4.69-1.64-4.69-4.61a2.87,2.87,0,0,1,3.13-2.7,4,4,0,0,1,2.74,1l-.62,1.12a3.42,3.42,0,0,0-2.12-.83,1.58,1.58,0,0,0-1.76,1.41c0,2,4.69,1.46,4.69,4.6a2.79,2.79,0,0,1-3.07,2.73,4.52,4.52,0,0,1-3.21-1.28Z"/><path class="cls-11" d="M63.08,247.69h-.91v-1.07h.95v-2H64.4v2h1.68v1.07H64.4v3.08a1.38,1.38,0,0,0,1.48,1.56,1.45,1.45,0,0,0,.32,0v1.18a3.33,3.33,0,0,1-.47,0,2.38,2.38,0,0,1-2.65-2.59Z"/><path class="cls-11" d="M67.69,246.52H69v1.21a4.7,4.7,0,0,1,0,.52h0a2.36,2.36,0,0,1,2.19-1.81,2.08,2.08,0,0,1,.34,0v1.31a1.85,1.85,0,0,0-.38,0,2.09,2.09,0,0,0-1.94,1.63,4,4,0,0,0-.17,1.25v2.83H67.69Z"/><path class="cls-11" d="M76.45,249.12h.3V249a1.35,1.35,0,0,0-1.52-1.52,3.51,3.51,0,0,0-1.93.67l-.55-1a4.36,4.36,0,0,1,2.59-.82,2.46,2.46,0,0,1,2.74,2.71v4.38H76.84v-.65a4.71,4.71,0,0,1,0-.55h0a2.4,2.4,0,0,1-2.22,1.37,2.17,2.17,0,0,1-2.35-2.11C72.27,249.22,75.28,249.12,76.45,249.12Zm-1.54,3.43a2.1,2.1,0,0,0,1.85-2.21v-.22h-.34c-1,0-2.81.07-2.81,1.32A1.16,1.16,0,0,0,74.91,252.55Z"/><path class="cls-11" d="M80.31,247.69h-.9v-1.07h.94v-2h1.29v2h1.67v1.07H81.64v3.08a1.38,1.38,0,0,0,1.48,1.56,1.41,1.41,0,0,0,.31,0v1.18a3.26,3.26,0,0,1-.46,0,2.39,2.39,0,0,1-2.66-2.59Z"/><path class="cls-11" d="M87.91,246.36a3,3,0,0,1,3,3.24c0,.18,0,.58,0,.58H85.82a2.27,2.27,0,0,0,2.38,2.29,3.33,3.33,0,0,0,2.06-.81l.55,1a4.13,4.13,0,0,1-2.69,1A3.53,3.53,0,0,1,84.45,250,3.39,3.39,0,0,1,87.91,246.36Zm1.65,2.82a1.64,1.64,0,0,0-1.67-1.77,2,2,0,0,0-2,1.77Z"/><path class="cls-11" d="M95.05,255.18c1.21,0,2.19-.53,2.19-1.94v-.51c0-.22,0-.44,0-.44h0a2.2,2.2,0,0,1-2.06,1.08c-1.93,0-3.09-1.55-3.09-3.55s1.11-3.46,3-3.46a2.3,2.3,0,0,1,2.17,1h0s0-.09,0-.21v-.65h1.27v6.65c0,2.29-1.74,3.16-3.49,3.16a5.41,5.41,0,0,1-2.37-.57l.44-1A4.48,4.48,0,0,0,95.05,255.18Zm2.22-5.34c0-1.81-.88-2.33-2-2.33s-1.89.87-1.89,2.29.77,2.42,2,2.42C96.39,252.22,97.27,251.65,97.27,249.84Z"/><path class="cls-11" d="M100.15,254.89a1.53,1.53,0,0,0,.81.29,1.41,1.41,0,0,0,1.24-1l.34-.8-2.9-6.85h1.49l1.74,4.54a7.8,7.8,0,0,1,.26.83h0s.11-.46.23-.82l1.69-4.55h1.44l-3.25,8.18a2.37,2.37,0,0,1-2.25,1.63,2.43,2.43,0,0,1-1.34-.42Z"/><path class="cls-9" d="M214.36,326.35c0-3.51,4.55-4.07,4.55-6a1.36,1.36,0,0,0-1.48-1.36,2.23,2.23,0,0,0-1.75,1.15l-1.32-.88a3.6,3.6,0,0,1,3.22-1.94,2.9,2.9,0,0,1,3.17,2.88c0,3.12-4.36,3.65-4.4,5.49h4.55v1.52h-6.45A7,7,0,0,1,214.36,326.35Z"/><path class="cls-9" d="M222.41,322.33c0-2.79.86-5,3.52-5s3.53,2.22,3.53,5-.87,5.05-3.53,5.05S222.41,325.13,222.41,322.33Zm5.23,0c0-1.89-.38-3.38-1.71-3.38s-1.72,1.49-1.72,3.38.39,3.43,1.72,3.43S227.64,324.25,227.64,322.33Z"/><path class="cls-9" d="M231,322.33c0-2.79.87-5,3.53-5s3.53,2.22,3.53,5-.88,5.05-3.53,5.05S231,325.13,231,322.33Zm5.24,0c0-1.89-.39-3.38-1.71-3.38s-1.72,1.49-1.72,3.38.39,3.43,1.72,3.43S236.26,324.25,236.26,322.33Z"/><path class="cls-9" d="M239.59,322.76c0-2.55,1.46-5.44,4.48-5.44a4.44,4.44,0,0,1,2,.41l-.52,1.52a3.44,3.44,0,0,0-1.37-.3c-1.53,0-2.34,1.27-2.59,2.6h0a2.59,2.59,0,0,1,1.82-.68,3.09,3.09,0,0,1,3.13,3.24,3.14,3.14,0,0,1-3.21,3.27C241.31,327.38,239.59,325.69,239.59,322.76Zm5.2,1.35a1.68,1.68,0,0,0-1.78-1.79c-.88,0-1.59.45-1.59,1.05a2.28,2.28,0,0,0,1.92,2.39A1.49,1.49,0,0,0,244.79,324.11Z"/><path class="cls-9" d="M802.39,326.35c0-3.51,4.55-4.07,4.55-6a1.36,1.36,0,0,0-1.48-1.36,2.23,2.23,0,0,0-1.76,1.15l-1.31-.88a3.6,3.6,0,0,1,3.22-1.94,2.9,2.9,0,0,1,3.16,2.88c0,3.12-4.36,3.65-4.4,5.49h4.55v1.52h-6.45A6.88,6.88,0,0,1,802.39,326.35Z"/><path class="cls-9" d="M810.43,322.33c0-2.79.86-5,3.52-5s3.53,2.22,3.53,5-.87,5.05-3.53,5.05S810.43,325.13,810.43,322.33Zm5.23,0c0-1.89-.38-3.38-1.71-3.38s-1.71,1.49-1.71,3.38.38,3.43,1.71,3.43S815.66,324.25,815.66,322.33Z"/><path class="cls-9" d="M819,325.69h2.11v-5.4c0-.33,0-.66,0-.66h0a2.15,2.15,0,0,1-.42.55l-.78.74-1-1.09,2.44-2.35h1.55v8.21H825v1.52h-6Z"/><path class="cls-9" d="M827.44,321.88a2.29,2.29,0,0,1-1-1.9c0-1.35,1-2.66,3.13-2.66,1.81,0,3.15,1,3.15,2.7a4.15,4.15,0,0,1-1.08,2.4,2.33,2.33,0,0,1,1.24,2.06c0,1.5-1.24,2.9-3.42,2.9s-3.48-1.32-3.48-3A3.31,3.31,0,0,1,827.44,321.88Zm1.25.73a2.21,2.21,0,0,0-.9,1.64,1.6,1.6,0,0,0,1.67,1.56,1.47,1.47,0,0,0,1.63-1.41C831.09,323.55,829.87,323.17,828.69,322.61Zm1.64-.84a2.58,2.58,0,0,0,.66-1.64c0-.76-.57-1.24-1.45-1.24s-1.36.5-1.36,1.13C828.18,320.91,829.22,321.29,830.33,321.77Z"/><path class="cls-9" d="M697.93,326.35c0-3.51,4.55-4.07,4.55-6A1.36,1.36,0,0,0,701,319a2.21,2.21,0,0,0-1.75,1.15l-1.32-.88a3.6,3.6,0,0,1,3.22-1.94,2.9,2.9,0,0,1,3.17,2.88c0,3.12-4.36,3.65-4.4,5.49h4.55v1.52H698A5.47,5.47,0,0,1,697.93,326.35Z"/><path class="cls-9" d="M706,322.33c0-2.79.86-5,3.52-5s3.53,2.22,3.53,5-.88,5.05-3.53,5.05S706,325.13,706,322.33Zm5.23,0c0-1.89-.38-3.38-1.71-3.38s-1.72,1.49-1.72,3.38.39,3.43,1.72,3.43S711.21,324.25,711.21,322.33Z"/><path class="cls-9" d="M714.55,325.69h2.11v-5.4c0-.33,0-.66,0-.66h0a2.08,2.08,0,0,1-.43.55l-.78.74-1-1.09,2.44-2.35h1.55v8.21h2.11v1.52h-6Z"/><path class="cls-9" d="M721.55,322.76c0-2.55,1.47-5.44,4.48-5.44a4.46,4.46,0,0,1,2,.41l-.52,1.52a3.5,3.5,0,0,0-1.37-.3c-1.54,0-2.35,1.27-2.59,2.6h0a2.64,2.64,0,0,1,1.83-.68,3.08,3.08,0,0,1,3.12,3.24,3.13,3.13,0,0,1-3.2,3.27C723.28,327.38,721.55,325.69,721.55,322.76Zm5.21,1.35a1.69,1.69,0,0,0-1.78-1.79c-.88,0-1.59.45-1.59,1.05a2.28,2.28,0,0,0,1.92,2.39A1.49,1.49,0,0,0,726.76,324.11Z"/><path class="cls-9" d="M570.49,326.35c0-3.51,4.55-4.07,4.55-6a1.36,1.36,0,0,0-1.48-1.36,2.21,2.21,0,0,0-1.75,1.15l-1.32-.88a3.6,3.6,0,0,1,3.22-1.94,2.91,2.91,0,0,1,3.17,2.88c0,3.12-4.36,3.65-4.4,5.49H577v1.52h-6.46A6.88,6.88,0,0,1,570.49,326.35Z"/><path class="cls-9" d="M578.53,322.33c0-2.79.87-5,3.52-5s3.54,2.22,3.54,5-.88,5.05-3.54,5.05S578.53,325.13,578.53,322.33Zm5.24,0c0-1.89-.39-3.38-1.72-3.38s-1.71,1.49-1.71,3.38.39,3.43,1.71,3.43S583.77,324.25,583.77,322.33Z"/><path class="cls-9" d="M587.11,325.69h2.11v-5.4c0-.33,0-.66,0-.66h0a1.88,1.88,0,0,1-.42.55l-.78.74-1-1.09,2.44-2.35h1.54v8.21h2.12v1.52h-5.95Z"/><path class="cls-9" d="M593.55,323.62l4.19-6.14h2.1v5.76h1.26v1.46h-1.26v2.51H598.1V324.7h-4.55Zm4.55-.38v-3c0-.48.06-1,.06-1h0a5.71,5.71,0,0,1-.48.89l-2.25,3.11v0Z"/><path class="cls-9" d="M308.79,326.35c0-3.51,4.55-4.07,4.55-6a1.36,1.36,0,0,0-1.48-1.36,2.23,2.23,0,0,0-1.75,1.15l-1.32-.87a3.62,3.62,0,0,1,3.22-1.95,2.9,2.9,0,0,1,3.17,2.88c0,3.12-4.36,3.65-4.4,5.49h4.55v1.52h-6.45A7,7,0,0,1,308.79,326.35Z"/><path class="cls-9" d="M316.84,322.33c0-2.79.86-5,3.52-5s3.53,2.22,3.53,5-.87,5.05-3.53,5.05S316.84,325.13,316.84,322.33Zm5.23,0c0-1.89-.38-3.38-1.71-3.38s-1.71,1.49-1.71,3.38.38,3.43,1.71,3.43S322.07,324.25,322.07,322.33Z"/><path class="cls-9" d="M325.41,325.69h2.11v-5.4c0-.33,0-.65,0-.65h0a2.15,2.15,0,0,1-.43.54l-.78.74-1-1.09,2.44-2.35h1.55v8.21h2.11v1.52h-5.95Z"/><path class="cls-9" d="M332.47,322.33c0-2.79.86-5,3.52-5s3.53,2.22,3.53,5-.87,5.05-3.53,5.05S332.47,325.13,332.47,322.33Zm5.23,0c0-1.89-.38-3.38-1.71-3.38s-1.71,1.49-1.71,3.38.38,3.43,1.71,3.43S337.7,324.25,337.7,322.33Z"/><path class="cls-9" d="M423.33,326.35c0-3.51,4.55-4.07,4.55-6A1.36,1.36,0,0,0,426.4,319a2.21,2.21,0,0,0-1.75,1.15l-1.32-.87a3.6,3.6,0,0,1,3.22-1.95,2.9,2.9,0,0,1,3.16,2.88c0,3.12-4.35,3.65-4.39,5.49h4.55v1.52h-6.46A6.88,6.88,0,0,1,423.33,326.35Z"/><path class="cls-9" d="M431.37,322.33c0-2.79.86-5,3.52-5s3.54,2.22,3.54,5-.88,5.05-3.54,5.05S431.37,325.13,431.37,322.33Zm5.24,0c0-1.89-.39-3.38-1.72-3.38s-1.71,1.49-1.71,3.38.38,3.43,1.71,3.43S436.61,324.25,436.61,322.33Z"/><path class="cls-9" d="M440,325.69h2.11v-5.4c0-.33,0-.65,0-.65h0a2.23,2.23,0,0,1-.42.54l-.78.74-1-1.09,2.44-2.35h1.54v8.21h2.11v1.52H440Z"/><path class="cls-9" d="M446.91,326.35c0-3.51,4.55-4.07,4.55-6A1.36,1.36,0,0,0,450,319a2.23,2.23,0,0,0-1.76,1.15l-1.31-.87a3.6,3.6,0,0,1,3.22-1.95,2.9,2.9,0,0,1,3.16,2.88c0,3.12-4.35,3.65-4.4,5.49h4.55v1.52H447A6.88,6.88,0,0,1,446.91,326.35Z"/><rect class="cls-12" x="124.74" y="268.14" width="38.79" height="20.55" rx="9.04"/><rect class="cls-12" x="215.3" y="268.14" width="20.84" height="20.55" rx="9.04"/><rect class="cls-12" x="547.29" y="76.61" width="196.32" height="20.55" rx="9.04"/><rect class="cls-13" x="540.29" y="110.22" width="304.29" height="20.55" rx="9.04"/><rect class="cls-13" x="505.52" y="241.55" width="147.42" height="18.08" rx="9.04"/><rect class="cls-13" x="696.12" y="241.55" width="148.46" height="18.08" rx="9.04"/><rect class="cls-12" x="604.21" y="206.49" width="146.63" height="20.55" rx="9.04"/><rect class="cls-13" x="343.4" y="44.06" width="501.18" height="20.55" rx="9.04"/><rect class="cls-13" x="206.49" y="173.96" width="62.42" height="20.55" rx="9.04"/><rect class="cls-13" x="778.39" y="173.96" width="27.35" height="21.26" rx="9.89"/><path class="cls-11" d="M17.19,145h1.36v6.25A2.22,2.22,0,0,0,21,153.58a2.24,2.24,0,0,0,2.47-2.37V145h1.35v6.25A3.52,3.52,0,0,1,21,154.82a3.52,3.52,0,0,1-3.81-3.59Z"/><path class="cls-11" d="M27.11,152.86a3,3,0,0,0,2,.81c.58,0,1.15-.3,1.15-.86,0-1.28-3.56-1-3.56-3.28,0-1.26,1.12-2,2.51-2a3.1,3.1,0,0,1,2.23.77l-.54,1a2.51,2.51,0,0,0-1.71-.62c-.57,0-1.14.25-1.14.85,0,1.25,3.57,1,3.57,3.25,0,1.15-1,2-2.51,2a3.73,3.73,0,0,1-2.63-1Z"/><path class="cls-11" d="M36.16,147.56a3,3,0,0,1,3,3.25c0,.18,0,.57,0,.57H34.06a2.27,2.27,0,0,0,2.38,2.29,3.3,3.3,0,0,0,2.06-.81l.55,1a4.15,4.15,0,0,1-2.69,1,3.52,3.52,0,0,1-3.67-3.63A3.4,3.4,0,0,1,36.16,147.56Zm1.64,2.82a1.63,1.63,0,0,0-1.67-1.76,2,2,0,0,0-2,1.76Z"/><path class="cls-11" d="M40.77,147.72h1.29v1.21a4.48,4.48,0,0,1,0,.52h0a2.38,2.38,0,0,1,2.19-1.81,2.08,2.08,0,0,1,.34,0V149a1.5,1.5,0,0,0-.38-.05,2.1,2.1,0,0,0-1.94,1.63,4.06,4.06,0,0,0-.17,1.25v2.84H40.77Z"/><path class="cls-11" d="M49.7,145h3a5,5,0,0,1,1.81.22,2.88,2.88,0,0,1-.11,5.24v0a2.73,2.73,0,0,1,.29.43l2.06,3.76H55.17l-2-3.85H51.06v3.85H49.7ZM53,149.63a1.61,1.61,0,0,0,1.71-1.75,1.58,1.58,0,0,0-.77-1.5,2.73,2.73,0,0,0-1.33-.22H51.06v3.47Z"/><path class="cls-11" d="M61.2,147.56a3,3,0,0,1,3,3.25c0,.18,0,.57,0,.57H59.1a2.27,2.27,0,0,0,2.39,2.29,3.29,3.29,0,0,0,2-.81l.55,1a4.15,4.15,0,0,1-2.69,1,3.53,3.53,0,0,1-3.67-3.63A3.4,3.4,0,0,1,61.2,147.56Zm1.64,2.82a1.63,1.63,0,0,0-1.67-1.76,2,2,0,0,0-2,1.76Z"/><path class="cls-11" d="M65.9,152.86a3,3,0,0,0,2,.81c.58,0,1.16-.3,1.16-.86,0-1.28-3.57-1-3.57-3.28,0-1.26,1.13-2,2.51-2a3.1,3.1,0,0,1,2.23.77l-.53,1a2.54,2.54,0,0,0-1.71-.62c-.58,0-1.14.25-1.14.85,0,1.25,3.56,1,3.56,3.25,0,1.15-1,2-2.51,2a3.76,3.76,0,0,1-2.63-1Z"/><path class="cls-11" d="M74.94,147.56a3,3,0,0,1,3,3.25c0,.18,0,.57,0,.57H72.84a2.27,2.27,0,0,0,2.39,2.29,3.29,3.29,0,0,0,2-.81l.55,1a4.14,4.14,0,0,1-2.68,1,3.53,3.53,0,0,1-3.68-3.63A3.4,3.4,0,0,1,74.94,147.56Zm1.64,2.82a1.63,1.63,0,0,0-1.67-1.76,2,2,0,0,0-2,1.76Z"/><path class="cls-11" d="M83.17,150.33h.31v-.12A1.36,1.36,0,0,0,82,148.68a3.52,3.52,0,0,0-1.93.68l-.55-1a4.36,4.36,0,0,1,2.59-.82,2.46,2.46,0,0,1,2.74,2.71v4.39H83.57V154a4.93,4.93,0,0,1,0-.55h0a2.4,2.4,0,0,1-2.22,1.37A2.17,2.17,0,0,1,79,152.71C79,150.42,82,150.33,83.17,150.33Zm-1.53,3.42a2.1,2.1,0,0,0,1.85-2.2v-.22h-.34c-1,0-2.81.07-2.81,1.31A1.16,1.16,0,0,0,81.64,153.75Z"/><path class="cls-11" d="M86.79,147.72h1.29v1.21a4.48,4.48,0,0,1,0,.52h0a2.37,2.37,0,0,1,2.19-1.81,2.08,2.08,0,0,1,.34,0V149a1.6,1.6,0,0,0-.38-.05,2.12,2.12,0,0,0-2,1.63,4.38,4.38,0,0,0-.16,1.25v2.84H86.79Z"/><path class="cls-11" d="M95.11,147.56a3.5,3.5,0,0,1,2.6,1l-.63.94a2.8,2.8,0,0,0-1.92-.8,2.36,2.36,0,0,0-2.41,2.47,2.4,2.4,0,0,0,2.45,2.49,3.15,3.15,0,0,0,2.14-.93l.53,1a3.76,3.76,0,0,1-2.76,1.11,3.63,3.63,0,1,1,0-7.26Z"/><path class="cls-11" d="M99.38,145h1.33v3.55a5.41,5.41,0,0,1,0,.58h0a2.8,2.8,0,0,1,2.56-1.55c1.63,0,2.39.89,2.39,2.66v4.44h-1.33v-4.14c0-1-.21-1.74-1.32-1.74a2.29,2.29,0,0,0-2.19,1.71,3.36,3.36,0,0,0-.11.92v3.25H99.38Z"/><rect class="cls-12" x="599.61" y="142.48" width="244.98" height="20.55" rx="9.04"/></svg>