<?xml version="1.0" encoding="UTF-8"?>
<svg width="47px" height="37px" viewBox="0 0 47 37" version="1.1" xmlns="http://www.w3.org/2000/svg" xmlns:xlink="http://www.w3.org/1999/xlink">
    <!-- Generator: Sketch 48.2 (47327) - http://www.bohemiancoding.com/sketch -->
    <title>close-this</title>
    <desc>Created with Sketch.</desc>
    <defs></defs>
    <g id="-" stroke="none" stroke-width="1" fill="none" fill-rule="evenodd" transform="translate(-410.000000, -281.000000)">
        <g id="close-this" transform="translate(410.500000, 280.934641)">
            <g id="Group" transform="translate(23.000000, 18.500000) rotate(-180.000000) translate(-23.000000, -18.500000) " stroke="#979797" stroke-linecap="round">
                <path d="M0.49052514,17.8661406 L45,17.8661406" id="Path-2"></path>
                <polyline id="Path-4" transform="translate(3.726316, 18.366141) rotate(-180.000000) translate(-3.726316, -18.366141) " points="0.214093339 0.0985625 7.39865337 18.3149983 0.0539782072 36.6337188"></polyline>
            </g>
            <path d="M7.79013775,9.61503906 L8.81213775,9.61503906 C8.28013775,12.1070391 6.65613775,14.1090391 3.78613775,14.1090391 C1.37813775,14.1090391 0.216137747,12.6670391 0.216137747,10.5250391 C0.216137747,7.29103906 2.68013775,3.72103906 5.98413775,3.72103906 C6.85213775,3.72103906 7.76213775,4.15503906 8.40613775,4.86903906 L9.05013775,3.97303906 L9.86213775,3.97303906 L9.07813775,7.68303906 L8.15413775,7.68303906 L8.15413775,7.44503906 C8.15413775,5.42903906 6.96413775,4.79903906 5.88613775,4.79903906 C3.24013775,4.79903906 2.09213775,8.34103906 2.09213775,10.5530391 C2.09213775,11.9390391 2.63813775,13.0590391 4.24813775,13.0590391 C6.05413775,13.0590391 7.39813775,11.5050391 7.79013775,9.61503906 Z M12.4941377,12.6670391 L12.8301377,11.0990391 L13.6141377,11.0990391 L13.2361377,12.8210391 C13.0401377,13.7030391 12.1441377,14.0250391 11.5001377,14.0250391 C10.4921377,14.0250391 10.0441377,13.5910391 10.0441377,12.9330391 C10.0441377,12.8210391 10.0721377,12.6810391 10.1001377,12.5410391 C11.7941377,4.47703906 11.8081377,4.44903906 11.8081377,4.42103906 C11.8081377,4.21103906 11.6541377,4.15503906 11.5281377,4.15503906 L10.6181377,4.15503906 L10.8001377,3.35703906 L13.5861377,3.11903906 L11.5701377,12.6670391 C11.5561377,12.7090391 11.5561377,12.7510391 11.5561377,12.7790391 C11.5561377,12.9610391 11.6681377,13.0730391 11.9201377,13.0730391 C12.2281377,13.0730391 12.4381377,12.9050391 12.4941377,12.6670391 Z M17.2821377,13.9830391 C15.5041377,13.9830391 14.6081377,12.8630391 14.6081377,11.2250391 C14.6081377,8.48103906 16.6941377,6.32503906 19.0601377,6.32503906 C20.7261377,6.32503906 21.7201377,7.50103906 21.7201377,9.16703906 C21.7201377,11.9250391 19.5921377,13.9830391 17.2821377,13.9830391 Z M19.9561377,10.0630391 C20.0261377,9.69903906 20.0821377,9.30703906 20.0821377,8.94303906 C20.0821377,8.01903906 19.7741377,7.23503906 18.7941377,7.23503906 C16.8481377,7.23503906 16.2181377,10.2030391 16.2181377,11.4630391 C16.2181377,12.3590391 16.5121377,13.1010391 17.4921377,13.1010391 C18.9621377,13.1010391 19.6621377,11.4490391 19.9561377,10.0630391 Z M26.5921377,11.0430391 L24.7441377,10.4690391 C23.9181377,10.2170391 23.3301377,9.76903906 23.3301377,8.95703906 C23.3301377,7.08103906 25.1081377,6.31103906 26.8161377,6.31103906 C27.6841377,6.31103906 29.3361377,6.84303906 29.3361377,7.99103906 C29.3361377,8.73303906 28.6921377,9.34903906 27.9921377,9.34903906 C27.5441377,9.34903906 27.2081377,9.08303906 27.2081377,8.63503906 C27.2081377,8.20103906 27.4881377,7.78103906 27.9361377,7.57103906 C27.5161377,7.23503906 26.9701377,7.16503906 26.6761377,7.16503906 C25.5701377,7.16503906 24.6881377,7.51503906 24.6881377,8.39703906 C24.6881377,8.76103906 24.9681377,8.97103906 25.3181377,9.06903906 L27.4461377,9.69903906 C28.2161377,9.92303906 28.6921377,10.4690391 28.6921377,11.1830391 C28.6921377,13.2130391 26.5501377,13.9970391 25.2761377,13.9970391 C24.3941377,13.9970391 22.6161377,13.4510391 22.6161377,12.3030391 C22.6161377,11.5610391 23.2741377,10.9730391 23.9601377,10.9730391 C24.4221377,10.9730391 24.7721377,11.2250391 24.7721377,11.6730391 C24.7721377,12.1210391 24.4781377,12.5270391 24.0301377,12.7370391 C24.5201377,13.0590391 25.1361377,13.1150391 25.2901377,13.1150391 C26.0181377,13.1150391 27.3341377,12.9330391 27.3341377,11.7570391 C27.3341377,11.3370391 26.9841377,11.1690391 26.5921377,11.0430391 Z M36.7701377,10.3290391 L31.7721377,10.3290391 C31.6741377,10.6930391 31.6601377,11.0150391 31.6601377,11.2950391 C31.6601377,12.5690391 32.4021377,12.9890391 33.2141377,12.9890391 C34.8101377,12.9890391 35.5101377,11.3790391 35.5101377,11.3790391 L36.4481377,11.3790391 C36.2381377,12.4010391 34.7121377,14.0110391 32.8081377,14.0110391 C30.9461377,14.0110391 29.9941377,12.8910391 29.9941377,11.2530391 C29.9941377,8.57903906 32.0241377,6.29703906 34.3901377,6.29703906 C36.1541377,6.29703906 36.9241377,7.40303906 36.9241377,8.99903906 C36.9241377,9.41903906 36.8681377,9.86703906 36.7701377,10.3290391 Z M32.0101377,9.39103906 L35.1741377,9.39103906 C35.2301377,9.11103906 35.2721377,8.83103906 35.2721377,8.57903906 C35.2721377,7.82303906 34.9641377,7.23503906 34.1521377,7.23503906 C33.1441377,7.23503906 32.2481377,8.24303906 32.0101377,9.39103906 Z M5.41013775,33.7870391 L0.706137747,33.7870391 L0.888137747,32.8490391 L1.95213775,32.8490391 C2.21813775,32.8490391 2.49813775,32.6110391 2.55413775,32.3310391 L4.09413775,25.0510391 L3.38013775,25.0510391 C1.88213775,25.0510391 1.53213775,26.1570391 1.05613775,27.6830391 L0.202137747,27.6830391 L0.986137747,24.0570391 L9.28813775,24.0570391 L8.51813775,27.6830391 L7.66413775,27.6830391 C7.72013775,27.2210391 7.76213775,26.7870391 7.76213775,26.4230391 C7.76213775,25.5830391 7.51013775,25.0510391 6.48813775,25.0510391 L5.70413775,25.0510391 L4.15013775,32.3450391 C4.13613775,32.4010391 4.12213775,32.4570391 4.12213775,32.5130391 C4.12213775,32.7650391 4.31813775,32.8490391 4.59813775,32.8490391 L5.59213775,32.8490391 L5.41013775,33.7870391 Z M15.7001377,32.6390391 L16.0361377,31.0710391 L16.8201377,31.0710391 L16.4561377,32.7930391 C16.2741377,33.6750391 15.3221377,33.9970391 14.7061377,33.9970391 C13.6981377,33.9970391 13.2361377,33.7030391 13.2361377,33.0450391 C13.2361377,32.9190391 13.2501377,32.7930391 13.2781377,32.6530391 L14.1601377,28.5510391 C14.1881377,28.4390391 14.1881377,28.3270391 14.1881377,28.2290391 C14.1881377,27.6970391 13.8521377,27.4310391 13.2781377,27.4310391 C12.3401377,27.4310391 11.4021377,28.1170391 11.1921377,29.1110391 L10.2121377,33.7870391 L8.70013775,33.7870391 C10.6601377,24.4770391 10.6741377,24.4490391 10.6741377,24.4210391 C10.6741377,24.2110391 10.5201377,24.1550391 10.3941377,24.1550391 L9.48413775,24.1550391 L9.66613775,23.3570391 L12.4521377,23.1190391 L11.5841377,27.1930391 L11.2761377,27.9210391 C12.0881377,26.8710391 12.8721377,26.3110391 13.9921377,26.3110391 C15.0141377,26.3110391 15.7561377,26.8570391 15.7561377,27.8510391 C15.7561377,27.9770391 15.7561377,28.0890391 15.7281377,28.2150391 L14.7761377,32.6390391 C14.7621377,32.6810391 14.7621377,32.7230391 14.7621377,32.7510391 C14.7621377,32.9470391 14.8881377,33.0590391 15.1401377,33.0590391 C15.4481377,33.0590391 15.6441377,32.8910391 15.7001377,32.6390391 Z M20.2781377,25.3730391 C19.8301377,25.3730391 19.5221377,25.0650391 19.5221377,24.6590391 C19.5221377,24.0430391 20.0821377,23.4410391 20.7261377,23.4410391 C21.1741377,23.4410391 21.4821377,23.7770391 21.4821377,24.2110391 C21.4821377,24.8690391 20.8521377,25.3730391 20.2781377,25.3730391 Z M20.5581377,32.6670391 L20.8941377,31.0990391 L21.6781377,31.0990391 L21.3001377,32.8210391 C21.1041377,33.7030391 20.2081377,34.0250391 19.5641377,34.0250391 C18.5561377,34.0250391 18.1081377,33.5630391 18.1081377,32.9050391 C18.1081377,32.7930391 18.1361377,32.6530391 18.1641377,32.5130391 C19.1721377,27.6830391 19.1861377,27.6550391 19.1861377,27.6130391 C19.1861377,27.4170391 19.0461377,27.3610391 18.9201377,27.3610391 L18.0661377,27.3610391 L18.2341377,26.5630391 L20.9781377,26.3250391 L19.6341377,32.6670391 C19.6201377,32.7090391 19.6201377,32.7510391 19.6201377,32.7790391 C19.6201377,32.9610391 19.7321377,33.0730391 19.9841377,33.0730391 C20.2921377,33.0730391 20.5021377,32.9050391 20.5581377,32.6670391 Z M26.6061377,31.0430391 L24.7581377,30.4690391 C23.9321377,30.2170391 23.3441377,29.7690391 23.3441377,28.9570391 C23.3441377,27.0810391 25.1221377,26.3110391 26.8301377,26.3110391 C27.6981377,26.3110391 29.3501377,26.8430391 29.3501377,27.9910391 C29.3501377,28.7330391 28.7061377,29.3490391 28.0061377,29.3490391 C27.5581377,29.3490391 27.2221377,29.0830391 27.2221377,28.6350391 C27.2221377,28.2010391 27.5021377,27.7810391 27.9501377,27.5710391 C27.5301377,27.2350391 26.9841377,27.1650391 26.6901377,27.1650391 C25.5841377,27.1650391 24.7021377,27.5150391 24.7021377,28.3970391 C24.7021377,28.7610391 24.9821377,28.9710391 25.3321377,29.0690391 L27.4601377,29.6990391 C28.2301377,29.9230391 28.7061377,30.4690391 28.7061377,31.1830391 C28.7061377,33.2130391 26.5641377,33.9970391 25.2901377,33.9970391 C24.4081377,33.9970391 22.6301377,33.4510391 22.6301377,32.3030391 C22.6301377,31.5610391 23.2881377,30.9730391 23.9741377,30.9730391 C24.4361377,30.9730391 24.7861377,31.2250391 24.7861377,31.6730391 C24.7861377,32.1210391 24.4921377,32.5270391 24.0441377,32.7370391 C24.5341377,33.0590391 25.1501377,33.1150391 25.3041377,33.1150391 C26.0321377,33.1150391 27.3481377,32.9330391 27.3481377,31.7570391 C27.3481377,31.3370391 26.9981377,31.1690391 26.6061377,31.0430391 Z" id="Close-This" fill="#CCCCCC"></path>
        </g>
    </g>
</svg>