<?xml version="1.0" encoding="UTF-8"?>
<svg width="48px" height="37px" viewBox="0 0 48 37" version="1.1" xmlns="http://www.w3.org/2000/svg" xmlns:xlink="http://www.w3.org/1999/xlink">
    <!-- Generator: Sketch 48.2 (47327) - http://www.bohemiancoding.com/sketch -->
    <title>open-this</title>
    <desc>Created with Sketch.</desc>
    <defs></defs>
    <g id="-" stroke="none" stroke-width="1" fill="none" fill-rule="evenodd" transform="translate(-280.000000, -282.000000)">
        <g id="open-this" transform="translate(281.068359, 281.934641)">
            <path d="M0.49052514,18.8661406 L46.4316406,18.8661406" id="Path-2" stroke="#979797" stroke-linecap="round"></path>
            <polyline id="Path-4" stroke="#979797" stroke-linecap="round" transform="translate(4.223978, 18.098563) rotate(-180.000000) translate(-4.223978, -18.098563) " points="0.235791588 0.0985625 8.39397836 18.0481693 0.0539782072 36.0985625"></polyline>
            <path d="M14.9681377,13.1090391 C12.8261377,13.1090391 11.2441377,11.7090391 11.2441377,9.32903906 C11.2441377,8.92303906 11.3001377,8.48903906 11.3981377,8.02703906 C12.0281377,5.08703906 14.0721377,2.76303906 17.3201377,2.76303906 C19.6721377,2.76303906 21.0161377,4.24703906 21.0161377,6.47303906 C21.0161377,10.1830391 18.2721377,13.1090391 14.9681377,13.1090391 Z M18.9581377,7.90103906 C19.0841377,7.31303906 19.1681377,6.72503906 19.1681377,6.17903906 C19.1681377,4.80703906 18.6501377,3.72903906 17.0821377,3.72903906 C14.2401377,3.72903906 13.0501377,7.28503906 13.0501377,9.69303906 C13.0501377,11.0790391 13.5961377,12.1150391 15.2341377,12.1150391 C17.4881377,12.1150391 18.5101377,10.0150391 18.9581377,7.90103906 Z M23.9421377,16.3570391 L20.0221377,16.3570391 L20.1761377,15.5450391 L20.9321377,15.5030391 C21.0721377,15.5030391 21.3521377,15.4190391 21.4501377,14.9710391 L23.2001377,6.71103906 C23.2141377,6.66903906 23.2141377,6.62703906 23.2141377,6.59903906 C23.2141377,6.40303906 23.0601377,6.34703906 22.9481377,6.34703906 L22.0381377,6.34703906 L22.2061377,5.54903906 L24.8521377,5.31103906 L24.6421377,6.24903906 L24.3481377,6.94903906 C25.0901377,6.01103906 26.0281377,5.29703906 26.9101377,5.29703906 C28.5621377,5.29703906 29.3181377,6.47303906 29.3181377,7.99903906 C29.3181377,10.3230391 27.8481377,12.9410391 25.5241377,12.9410391 C24.6981377,12.9410391 23.8581377,12.7170391 23.5781377,11.8210391 L22.9201377,14.9710391 C22.9061377,15.0550391 22.8921377,15.1250391 22.8921377,15.1810391 C22.8921377,15.4190391 23.0181377,15.5030391 23.2281377,15.5030391 L24.1241377,15.5030391 L23.9421377,16.3570391 Z M26.4201377,6.22103906 C24.8521377,6.22103906 23.9001377,8.72703906 23.9001377,10.3370391 C23.9001377,11.2750391 24.5161377,11.9750391 25.3841377,11.9750391 C27.1901377,11.9750391 27.6941377,8.96503906 27.6941377,7.88703906 C27.6941377,6.99103906 27.4001377,6.22103906 26.4201377,6.22103906 Z M37.0321377,9.32903906 L32.0341377,9.32903906 C31.9361377,9.69303906 31.9221377,10.0150391 31.9221377,10.2950391 C31.9221377,11.5690391 32.6641377,11.9890391 33.4761377,11.9890391 C35.0721377,11.9890391 35.7721377,10.3790391 35.7721377,10.3790391 L36.7101377,10.3790391 C36.5001377,11.4010391 34.9741377,13.0110391 33.0701377,13.0110391 C31.2081377,13.0110391 30.2561377,11.8910391 30.2561377,10.2530391 C30.2561377,7.57903906 32.2861377,5.29703906 34.6521377,5.29703906 C36.4161377,5.29703906 37.1861377,6.40303906 37.1861377,7.99903906 C37.1861377,8.41903906 37.1301377,8.86703906 37.0321377,9.32903906 Z M32.2721377,8.39103906 L35.4361377,8.39103906 C35.4921377,8.11103906 35.5341377,7.83103906 35.5341377,7.57903906 C35.5341377,6.82303906 35.2261377,6.23503906 34.4141377,6.23503906 C33.4061377,6.23503906 32.5101377,7.24303906 32.2721377,8.39103906 Z M45.2361377,11.6390391 L45.5721377,10.0710391 L46.3561377,10.0710391 L45.9921377,11.7930391 C45.8101377,12.6750391 44.8581377,12.9970391 44.2421377,12.9970391 C43.2341377,12.9970391 42.7721377,12.7030391 42.7721377,12.0450391 C42.7721377,11.9190391 42.7861377,11.7930391 42.8141377,11.6530391 L43.6961377,7.55103906 C43.7241377,7.43903906 43.7241377,7.32703906 43.7241377,7.22903906 C43.7241377,6.69703906 43.3881377,6.43103906 42.8141377,6.43103906 C41.8761377,6.43103906 40.9101377,7.24303906 40.7001377,8.23703906 L39.7481377,12.7870391 L38.2361377,12.7870391 C39.5101377,6.71103906 39.5241377,6.68303906 39.5241377,6.65503906 C39.5241377,6.44503906 39.3701377,6.38903906 39.2441377,6.38903906 L38.3201377,6.38903906 L38.4881377,5.59103906 L41.3021377,5.35303906 L41.1201377,6.19303906 L40.8121377,6.92103906 C41.6241377,5.87103906 42.4081377,5.31103906 43.5281377,5.31103906 C44.5501377,5.31103906 45.2921377,5.85703906 45.2921377,6.85103906 C45.2921377,6.97703906 45.2921377,7.08903906 45.2641377,7.21503906 L44.3121377,11.6390391 C44.2981377,11.6810391 44.2981377,11.7230391 44.2981377,11.7510391 C44.2981377,11.9470391 44.4241377,12.0590391 44.6761377,12.0590391 C44.9841377,12.0590391 45.1801377,11.8910391 45.2361377,11.6390391 Z M16.4101377,32.7870391 L11.7061377,32.7870391 L11.8881377,31.8490391 L12.9521377,31.8490391 C13.2181377,31.8490391 13.4981377,31.6110391 13.5541377,31.3310391 L15.0941377,24.0510391 L14.3801377,24.0510391 C12.8821377,24.0510391 12.5321377,25.1570391 12.0561377,26.6830391 L11.2021377,26.6830391 L11.9861377,23.0570391 L20.2881377,23.0570391 L19.5181377,26.6830391 L18.6641377,26.6830391 C18.7201377,26.2210391 18.7621377,25.7870391 18.7621377,25.4230391 C18.7621377,24.5830391 18.5101377,24.0510391 17.4881377,24.0510391 L16.7041377,24.0510391 L15.1501377,31.3450391 C15.1361377,31.4010391 15.1221377,31.4570391 15.1221377,31.5130391 C15.1221377,31.7650391 15.3181377,31.8490391 15.5981377,31.8490391 L16.5921377,31.8490391 L16.4101377,32.7870391 Z M26.7001377,31.6390391 L27.0361377,30.0710391 L27.8201377,30.0710391 L27.4561377,31.7930391 C27.2741377,32.6750391 26.3221377,32.9970391 25.7061377,32.9970391 C24.6981377,32.9970391 24.2361377,32.7030391 24.2361377,32.0450391 C24.2361377,31.9190391 24.2501377,31.7930391 24.2781377,31.6530391 L25.1601377,27.5510391 C25.1881377,27.4390391 25.1881377,27.3270391 25.1881377,27.2290391 C25.1881377,26.6970391 24.8521377,26.4310391 24.2781377,26.4310391 C23.3401377,26.4310391 22.4021377,27.1170391 22.1921377,28.1110391 L21.2121377,32.7870391 L19.7001377,32.7870391 C21.6601377,23.4770391 21.6741377,23.4490391 21.6741377,23.4210391 C21.6741377,23.2110391 21.5201377,23.1550391 21.3941377,23.1550391 L20.4841377,23.1550391 L20.6661377,22.3570391 L23.4521377,22.1190391 L22.5841377,26.1930391 L22.2761377,26.9210391 C23.0881377,25.8710391 23.8721377,25.3110391 24.9921377,25.3110391 C26.0141377,25.3110391 26.7561377,25.8570391 26.7561377,26.8510391 C26.7561377,26.9770391 26.7561377,27.0890391 26.7281377,27.2150391 L25.7761377,31.6390391 C25.7621377,31.6810391 25.7621377,31.7230391 25.7621377,31.7510391 C25.7621377,31.9470391 25.8881377,32.0590391 26.1401377,32.0590391 C26.4481377,32.0590391 26.6441377,31.8910391 26.7001377,31.6390391 Z M31.2781377,24.3730391 C30.8301377,24.3730391 30.5221377,24.0650391 30.5221377,23.6590391 C30.5221377,23.0430391 31.0821377,22.4410391 31.7261377,22.4410391 C32.1741377,22.4410391 32.4821377,22.7770391 32.4821377,23.2110391 C32.4821377,23.8690391 31.8521377,24.3730391 31.2781377,24.3730391 Z M31.5581377,31.6670391 L31.8941377,30.0990391 L32.6781377,30.0990391 L32.3001377,31.8210391 C32.1041377,32.7030391 31.2081377,33.0250391 30.5641377,33.0250391 C29.5561377,33.0250391 29.1081377,32.5630391 29.1081377,31.9050391 C29.1081377,31.7930391 29.1361377,31.6530391 29.1641377,31.5130391 C30.1721377,26.6830391 30.1861377,26.6550391 30.1861377,26.6130391 C30.1861377,26.4170391 30.0461377,26.3610391 29.9201377,26.3610391 L29.0661377,26.3610391 L29.2341377,25.5630391 L31.9781377,25.3250391 L30.6341377,31.6670391 C30.6201377,31.7090391 30.6201377,31.7510391 30.6201377,31.7790391 C30.6201377,31.9610391 30.7321377,32.0730391 30.9841377,32.0730391 C31.2921377,32.0730391 31.5021377,31.9050391 31.5581377,31.6670391 Z M37.6061377,30.0430391 L35.7581377,29.4690391 C34.9321377,29.2170391 34.3441377,28.7690391 34.3441377,27.9570391 C34.3441377,26.0810391 36.1221377,25.3110391 37.8301377,25.3110391 C38.6981377,25.3110391 40.3501377,25.8430391 40.3501377,26.9910391 C40.3501377,27.7330391 39.7061377,28.3490391 39.0061377,28.3490391 C38.5581377,28.3490391 38.2221377,28.0830391 38.2221377,27.6350391 C38.2221377,27.2010391 38.5021377,26.7810391 38.9501377,26.5710391 C38.5301377,26.2350391 37.9841377,26.1650391 37.6901377,26.1650391 C36.5841377,26.1650391 35.7021377,26.5150391 35.7021377,27.3970391 C35.7021377,27.7610391 35.9821377,27.9710391 36.3321377,28.0690391 L38.4601377,28.6990391 C39.2301377,28.9230391 39.7061377,29.4690391 39.7061377,30.1830391 C39.7061377,32.2130391 37.5641377,32.9970391 36.2901377,32.9970391 C35.4081377,32.9970391 33.6301377,32.4510391 33.6301377,31.3030391 C33.6301377,30.5610391 34.2881377,29.9730391 34.9741377,29.9730391 C35.4361377,29.9730391 35.7861377,30.2250391 35.7861377,30.6730391 C35.7861377,31.1210391 35.4921377,31.5270391 35.0441377,31.7370391 C35.5341377,32.0590391 36.1501377,32.1150391 36.3041377,32.1150391 C37.0321377,32.1150391 38.3481377,31.9330391 38.3481377,30.7570391 C38.3481377,30.3370391 37.9981377,30.1690391 37.6061377,30.0430391 Z" id="Open-This" fill="#888888"></path>
        </g>
    </g>
</svg>