<?xml version="1.0" encoding="utf-8"?>
<!-- Generator: Adobe Illustrator 22.0.1, SVG Export Plug-In . SVG Version: 6.00 Build 0)  -->
<svg version="1.1" id="Layer_1" xmlns="http://www.w3.org/2000/svg" xmlns:xlink="http://www.w3.org/1999/xlink" x="0px" y="0px"
	 viewBox="0 0 233.2 256" style="enable-background:new 0 0 233.2 256;" xml:space="preserve">
<style type="text/css">
	.st0{fill:#62CCC6;}
	.st1{fill:#EDD94F;}
	.st2{fill:url(#SVGID_1_);}
	.st3{fill:#CC6268;}
	.st4{fill:url(#SVGID_2_);}
	.st5{fill:url(#SVGID_3_);}
	.st6{fill:url(#SVGID_4_);}
	.st7{fill:url(#SVGID_5_);}
</style>
<polygon class="st0" points="19,256 0,256 106.5,0.1 209.3,256 190.7,256 105.9,45 "/>
<polygon class="st1" points="192,171 200.5,190.7 44.8,190.7 106,44.8 116,69.9 75,171.5 "/>
<linearGradient id="SVGID_1_" gradientUnits="userSpaceOnUse" x1="2.0392" y1="-1346.4504" x2="19.5518" y2="-1282.4712" gradientTransform="matrix(0.3775 0.926 0.926 -0.3775 1358.4723 -326.4825)">
	<stop  offset="7.434852e-04" style="stop-color:#EDD94F;stop-opacity:0"/>
	<stop  offset="1" style="stop-color:#000000"/>
</linearGradient>
<polygon class="st2" points="83.4,171.4 174.9,171 182.8,191 84.1,190.7 "/>
<polygon class="st3" points="83.4,151.4 75,171.3 197.6,171 130.8,0.3 106.6,0 166.5,151.2 "/>
<linearGradient id="SVGID_2_" gradientUnits="userSpaceOnUse" x1="136.5193" y1="99.3149" x2="74.0197" y2="86.5662" gradientTransform="matrix(1 0 0 -1 0 258)">
	<stop  offset="0" style="stop-color:#CC6268;stop-opacity:0"/>
	<stop  offset="1" style="stop-color:#000000"/>
</linearGradient>
<polygon class="st4" points="164.4,171 75.1,171.5 83,151.6 155.9,151.2 "/>
<polygon class="st1" points="48.8,181.4 16.9,256 38.8,256 70.7,181.6 "/>
<polygon class="st3" points="209,256 173.6,168.3 196.4,168.1 233.2,256 "/>
<linearGradient id="SVGID_3_" gradientUnits="userSpaceOnUse" x1="96.8035" y1="201.0634" x2="185.2046" y2="146.7067" gradientTransform="matrix(1 0 0 -1 0 258)">
	<stop  offset="0" style="stop-color:#62CCC6;stop-opacity:0"/>
	<stop  offset="1" style="stop-color:#000000"/>
</linearGradient>
<polygon class="st5" points="106.5,0.3 166.5,151.2 148.3,151.2 105.9,44.7 "/>
<linearGradient id="SVGID_4_" gradientUnits="userSpaceOnUse" x1="2267.2007" y1="-1539.465" x2="2316.1531" y2="-1569.5652" gradientTransform="matrix(-1 0 0 1 2474.4358 1775.4917)">
	<stop  offset="0" style="stop-color:#62CCC6;stop-opacity:0"/>
	<stop  offset="1" style="stop-color:#000000"/>
</linearGradient>
<polygon class="st6" points="190.7,256 164.4,190.8 182.7,190.8 208.9,256 "/>
<linearGradient id="SVGID_5_" gradientUnits="userSpaceOnUse" x1="90.6988" y1="149.3603" x2="107.353" y2="210.2035" gradientTransform="matrix(1 0 0 -1 0 258)">
	<stop  offset="7.434852e-04" style="stop-color:#EDD94F;stop-opacity:0"/>
	<stop  offset="1" style="stop-color:#000000"/>
</linearGradient>
<polygon class="st7" points="70.2,130.1 105.9,44.7 115.9,70 89,136.7 "/>
</svg>
