<?xml version="1.0" encoding="utf-8"?>
<!-- Generator: Adobe Illustrator 22.0.1, SVG Export Plug-In . SVG Version: 6.00 Build 0)  -->
<svg version="1.1" id="Layer_1" xmlns="http://www.w3.org/2000/svg" xmlns:xlink="http://www.w3.org/1999/xlink" x="0px" y="0px"
	 viewBox="0 0 233.2 256" style="enable-background:new 0 0 233.2 256;" xml:space="preserve">
<style type="text/css">
	.st0{fill:#62CCC6;}
	.st1{fill:#EDD94F;}
	.st2{fill:url(#SVGID_1_);}
	.st3{fill:#CC6268;}
	.st4{fill:url(#SVGID_2_);}
	.st5{fill:url(#SVGID_3_);}
	.st6{fill:url(#SVGID_4_);}
	.st7{fill:url(#SVGID_5_);}
</style>
<polygon class="st0" points="19,256 0,256 106.5,0.1 209.3,256 190.7,256 105.9,45 "/>
<polygon class="st1" points="192,171 200.5,190.7 44.8,190.7 106,44.8 116,69.9 75,171.5 "/>
<linearGradient id="SVGID_1_" gradientUnits="userSpaceOnUse" x1="-27.8051" y1="1802.0157" x2="-10.2925" y2="1738.0365" gradientTransform="matrix(0.3775 0.926 -0.926 0.3775 1791.5963 -470.787)">
	<stop  offset="7.434852e-04" style="stop-color:#EDD94F;stop-opacity:0"/>
	<stop  offset="1" style="stop-color:#000000"/>
</linearGradient>
<polygon class="st2" points="83.4,171.4 174.9,171 182.8,191 84.1,190.7 "/>
<polygon class="st3" points="83.4,151.4 75,171.3 197.6,171 130.8,0.3 106.6,0 166.5,151.2 "/>
<linearGradient id="SVGID_2_" gradientUnits="userSpaceOnUse" x1="136.5175" y1="158.6761" x2="74.0179" y2="171.4248">
	<stop  offset="0" style="stop-color:#CC6268;stop-opacity:0"/>
	<stop  offset="1" style="stop-color:#000000"/>
</linearGradient>
<polygon class="st4" points="164.4,171 75.1,171.5 83,151.6 155.9,151.2 "/>
<polygon class="st1" points="48.8,181.4 16.9,256 38.8,256 70.7,181.6 "/>
<polygon class="st3" points="209,256 173.6,168.3 196.4,168.1 233.2,256 "/>
<linearGradient id="SVGID_3_" gradientUnits="userSpaceOnUse" x1="96.8177" y1="56.9135" x2="185.2188" y2="111.2702">
	<stop  offset="0" style="stop-color:#62CCC6;stop-opacity:0"/>
	<stop  offset="1" style="stop-color:#000000"/>
</linearGradient>
<polygon class="st5" points="106.5,0.3 166.5,151.2 148.3,151.2 105.9,44.7 "/>
<linearGradient id="SVGID_4_" gradientUnits="userSpaceOnUse" x1="2531.1887" y1="2039.4845" x2="2580.1411" y2="2069.5847" gradientTransform="matrix(-1 0 0 -1 2738.4358 2275.4917)">
	<stop  offset="0" style="stop-color:#62CCC6;stop-opacity:0"/>
	<stop  offset="1" style="stop-color:#000000"/>
</linearGradient>
<polygon class="st6" points="190.7,256 164.4,190.8 182.7,190.8 208.9,256 "/>
<linearGradient id="SVGID_5_" gradientUnits="userSpaceOnUse" x1="90.7247" y1="108.6468" x2="107.3789" y2="47.8036">
	<stop  offset="7.434852e-04" style="stop-color:#EDD94F;stop-opacity:0"/>
	<stop  offset="1" style="stop-color:#000000"/>
</linearGradient>
<polygon class="st7" points="70.2,130.1 105.9,44.7 115.9,70 89,136.7 "/>
</svg>
